Pontano Sans-500.ufo
<glyph name="ampersand" format="1">
  <advance width="1430"/>
  <unicode hex="0026"/>
  <outline>
    <contour>
      <point x="1279" y="-33" type="line"/>
      <point x="1405" y="82" type="line"/>
      <point x="583" y="1003" type="line" smooth="yes"/>
      <point x="523" y="1070"/>
      <point x="499" y="1141"/>
      <point x="506" y="1208" type="curve" smooth="yes"/>
      <point x="512" y="1272"/>
      <point x="577" y="1328"/>
      <point x="678" y="1328" type="curve" smooth="yes"/>
      <point x="773" y="1328"/>
      <point x="836" y="1271"/>
      <point x="841" y="1205" type="curve" smooth="yes"/>
      <point x="847" y="1138"/>
      <point x="822" y="1031"/>
      <point x="530" y="917" type="curve" smooth="yes"/>
      <point x="227" y="799"/>
      <point x="101" y="652"/>
      <point x="98" y="418" type="curve" smooth="yes"/>
      <point x="95" y="172"/>
      <point x="292" y="-25"/>
      <point x="582" y="-25" type="curve" smooth="yes"/>
      <point x="865" y="-25"/>
      <point x="1238" y="108"/>
      <point x="1328" y="778" type="curve"/>
      <point x="1158" y="803" type="line"/>
      <point x="1091" y="318"/>
      <point x="869" y="139"/>
      <point x="613" y="139" type="curve" smooth="yes"/>
      <point x="392" y="139"/>
      <point x="306" y="267"/>
      <point x="302" y="420" type="curve" smooth="yes"/>
      <point x="298" y="559"/>
      <point x="360" y="675"/>
      <point x="633" y="805" type="curve" smooth="yes"/>
      <point x="921" y="943"/>
      <point x="1020" y="1034"/>
      <point x="1020" y="1211" type="curve" smooth="yes"/>
      <point x="1020" y="1393"/>
      <point x="861" y="1491"/>
      <point x="673" y="1491" type="curve" smooth="yes"/>
      <point x="490" y="1491"/>
      <point x="328" y="1392"/>
      <point x="318" y="1210" type="curve" smooth="yes"/>
      <point x="312" y="1114"/>
      <point x="337" y="1034"/>
      <point x="410" y="952" type="curve" smooth="yes"/>
    </contour>
  </outline>
</glyph>
<glyph name="quotesingle" format="1">
  <advance width="280"/>
  <unicode hex="0027"/>
  <outline>
    <contour>
      <point x="122" y="1000" type="line"/>
      <point x="190" y="1000" type="line"/>
      <point x="247" y="1464" type="line"/>
      <point x="64" y="1464" type="line"/>
    </contour>
  </outline>
</glyph>
<glyph name="parenleft" format="1">
  <advance width="602"/>
  <unicode hex="0028"/>
  <outline>
    <contour>
      <point x="523" y="-181" type="curve"/>
      <point x="562" y="-62" type="line"/>
      <point x="327" y="11"/>
      <point x="214" y="289"/>
      <point x="214" y="703" type="curve"/>
      <point x="214" y="1117"/>
      <point x="327" y="1395"/>
      <point x="562" y="1468" type="curve"/>
      <point x="523" y="1587" type="line"/>
      <point x="232" y="1518"/>
      <point x="3" y="1242"/>
      <point x="3" y="703" type="curve"/>
      <point x="3" y="164"/>
      <point x="232" y="-112"/>
    </contour>
  </outline>
</glyph>
<glyph name="parenright" format="1">
  <advance width="602"/>
  <unicode hex="0029"/>
  <outline>
    <contour>
      <point x="41" y="-181" type="line"/>
      <point x="332" y="-112"/>
      <point x="562" y="164"/>
      <point x="562" y="703" type="curve"/>
      <point x="562" y="1242"/>
      <point x="332" y="1518"/>
      <point x="41" y="1587" type="curve"/>
      <point x="3" y="1468" type="line"/>
      <point x="238" y="1395"/>
      <point x="350" y="1117"/>
      <point x="350" y="703" type="curve"/>
      <point x="350" y="289"/>
      <point x="238" y="11"/>
      <point x="3" y="-62" type="curve"/>
    </contour>
  </outline>
</glyph>
<glyph name="zero" format="1">
  <advance width="1246"/>
  <unicode hex="0030"/>
  <outline>
    <contour>
      <point x="623" y="140" type="curve"/>
      <point x="390" y="140"/>
      <point x="297" y="337"/>
      <point x="297" y="724" type="curve"/>
      <point x="297" y="1111"/>
      <point x="390" y="1325"/>
      <point x="623" y="1325" type="curve"/>
      <point x="856" y="1325"/>
      <point x="949" y="1111"/>
      <point x="949" y="724" type="curve"/>
      <point x="949" y="337"/>
      <point x="856" y="140"/>
    </contour>
    <contour>
      <point x="623" y="-24" type="curve"/>
      <point x="995" y="-24"/>
      <point x="1166" y="264"/>
      <point x="1166" y="724" type="curve"/>
      <point x="1166" y="1184"/>
      <point x="995" y="1489"/>
      <point x="623" y="1489" type="curve"/>
      <point x="251" y="1489"/>
      <point x="80" y="1184"/>
      <point x="80" y="724" type="curve"/>
      <point x="80" y="264"/>
      <point x="251" y="-24"/>
    </contour>
  </outline>
</glyph>
<glyph name="two" format="1">
  <advance width="1246"/>
  <unicode hex="0032"/>
  <outline>
    <contour>
      <point x="161" y="0" type="curve"/>
      <point x="1075" y="0" type="line"/>
      <point x="1075" y="165" type="line"/>
      <point x="393" y="165" type="line"/>
      <point x="582" y="481"/>
      <point x="1083" y="607"/>
      <point x="1073" y="1047" type="curve" smooth="yes"/>
      <point x="1067" y="1349"/>
      <point x="880" y="1489"/>
      <point x="617" y="1489" type="curve" smooth="yes"/>
      <point x="392" y="1489"/>
      <point x="234" y="1394"/>
      <point x="117" y="1141" type="curve"/>
      <point x="297" y="1069" type="line"/>
      <point x="381" y="1240"/>
      <point x="474" y="1326"/>
      <point x="629" y="1326" type="curve" smooth="yes"/>
      <point x="777" y="1326"/>
      <point x="867" y="1215"/>
      <point x="867" y="1051" type="curve" smooth="yes"/>
      <point x="867" y="599"/>
      <point x="168" y="537"/>
    </contour>
  </outline>
</glyph>
<glyph name="three" format="1">
  <advance width="1215"/>
  <unicode hex="0033"/>
  <outline>
    <contour>
      <point x="599" y="-24" type="curve" smooth="yes"/>
      <point x="906" y="-25"/>
      <point x="1067" y="195"/>
      <point x="1068" y="400" type="curve" smooth="yes"/>
      <point x="1069" y="578"/>
      <point x="996" y="756"/>
      <point x="776" y="820" type="curve"/>
      <point x="944" y="878"/>
      <point x="997" y="1015"/>
      <point x="997" y="1155" type="curve" smooth="yes"/>
      <point x="997" y="1354"/>
      <point x="839" y="1489"/>
      <point x="587" y="1489" type="curve" smooth="yes"/>
      <point x="417" y="1489"/>
      <point x="275" y="1412"/>
      <point x="175" y="1256" type="curve"/>
      <point x="323" y="1167" type="line"/>
      <point x="406" y="1292"/>
      <point x="490" y="1328"/>
      <point x="594" y="1328" type="curve" smooth="yes"/>
      <point x="725" y="1328"/>
      <point x="798" y="1243"/>
      <point x="798" y="1140" type="curve" smooth="yes"/>
      <point x="798" y="1006"/>
      <point x="757" y="888"/>
      <point x="483" y="888" type="curve"/>
      <point x="483" y="731" type="line"/>
      <point x="716" y="731"/>
      <point x="868" y="659"/>
      <point x="860" y="396" type="curve" smooth="yes"/>
      <point x="856" y="260"/>
      <point x="778" y="135"/>
      <point x="583" y="140" type="curve" smooth="yes"/>
      <point x="433" y="144"/>
      <point x="364" y="231"/>
      <point x="315" y="374" type="curve"/>
      <point x="141" y="316" type="line"/>
      <point x="202" y="68"/>
      <point x="380" y="-24"/>
    </contour>
  </outline>
</glyph>
<glyph name="four" format="1">
  <advance width="1238"/>
  <unicode hex="0034"/>
  <outline>
    <contour>
      <point x="752" y="0" type="line"/>
      <point x="946" y="0" type="line"/>
      <point x="946" y="349" type="line"/>
      <point x="1184" y="349" type="line"/>
      <point x="1184" y="501" type="line"/>
      <point x="945" y="501" type="line"/>
      <point x="945" y="1464" type="line"/>
      <point x="663" y="1464" type="line"/>
      <point x="104" y="498" type="line"/>
      <point x="104" y="349" type="line"/>
      <point x="752" y="349" type="line"/>
    </contour>
    <contour>
      <point x="301" y="501" type="line"/>
      <point x="752" y="1322" type="line"/>
      <point x="752" y="501" type="line"/>
    </contour>
  </outline>
</glyph>
<glyph name="five" format="1">
  <advance width="1229"/>
  <unicode hex="0035"/>
  <outline>
    <contour>
      <point x="625" y="-24" type="curve" smooth="yes"/>
      <point x="930" y="-24"/>
      <point x="1124" y="179"/>
      <point x="1124" y="461" type="curve" smooth="yes"/>
      <point x="1124" y="716"/>
      <point x="974" y="928"/>
      <point x="645" y="928" type="curve" smooth="yes"/>
      <point x="565" y="928"/>
      <point x="452" y="907"/>
      <point x="361" y="851" type="curve"/>
      <point x="419" y="849" type="line"/>
      <point x="485" y="1287" type="line"/>
      <point x="1008" y="1287" type="line"/>
      <point x="1008" y="1464" type="line"/>
      <point x="304" y="1464" type="line"/>
      <point x="208" y="744" type="line"/>
      <point x="335" y="663" type="line"/>
      <point x="433" y="734"/>
      <point x="531" y="762"/>
      <point x="635" y="762" type="curve" smooth="yes"/>
      <point x="815" y="762"/>
      <point x="917" y="624"/>
      <point x="917" y="453" type="curve" smooth="yes"/>
      <point x="917" y="266"/>
      <point x="785" y="138"/>
      <point x="616" y="138" type="curve" smooth="yes"/>
      <point x="481" y="138"/>
      <point x="359" y="222"/>
      <point x="286" y="377" type="curve"/>
      <point x="114" y="309" type="line"/>
      <point x="207" y="68"/>
      <point x="392" y="-24"/>
    </contour>
  </outline>
</glyph>
<glyph name="six" format="1">
  <advance width="1237"/>
  <unicode hex="0036"/>
  <outline>
    <contour>
      <point x="651" y="-24" type="curve" smooth="yes"/>
      <point x="951" y="-24"/>
      <point x="1124" y="220"/>
      <point x="1124" y="478" type="curve" smooth="yes"/>
      <point x="1124" y="783"/>
      <point x="925" y="950"/>
      <point x="673" y="948" type="curve" smooth="yes"/>
      <point x="560" y="947"/>
      <point x="447" y="919"/>
      <point x="345" y="844" type="curve"/>
      <point x="358" y="1197"/>
      <point x="491" y="1324"/>
      <point x="675" y="1325" type="curve" smooth="yes"/>
      <point x="759" y="1326"/>
      <point x="857" y="1300"/>
      <point x="957" y="1240" type="curve"/>
      <point x="1013" y="1396" type="line"/>
      <point x="901" y="1460"/>
      <point x="761" y="1489"/>
      <point x="663" y="1489" type="curve" smooth="yes"/>
      <point x="337" y="1489"/>
      <point x="120" y="1198"/>
      <point x="120" y="697" type="curve" smooth="yes"/>
      <point x="120" y="249"/>
      <point x="314" y="-24"/>
    </contour>
    <contour>
      <point x="651" y="141" type="curve" smooth="yes"/>
      <point x="419" y="141"/>
      <point x="345" y="388"/>
      <point x="345" y="643" type="curve" smooth="yes"/>
      <point x="345" y="677" type="line"/>
      <point x="444" y="753"/>
      <point x="542" y="789"/>
      <point x="647" y="790" type="curve" smooth="yes"/>
      <point x="827" y="792"/>
      <point x="912" y="706"/>
      <point x="912" y="474" type="curve" smooth="yes"/>
      <point x="912" y="257"/>
      <point x="811" y="141"/>
    </contour>
  </outline>
</glyph>
<glyph name="seven" format="1">
  <advance width="1246"/>
  <unicode hex="0037"/>
  <outline>
    <contour>
      <point x="555" y="-1" type="line"/>
      <point x="1076" y="1306" type="line"/>
      <point x="1076" y="1464" type="line"/>
      <point x="196" y="1464" type="line"/>
      <point x="211" y="1306" type="line"/>
      <point x="860" y="1306" type="line"/>
      <point x="331" y="0" type="line"/>
    </contour>
  </outline>
</glyph>
<glyph name="eight" format="1">
  <advance width="1229"/>
  <unicode hex="0038"/>
  <outline>
    <contour>
      <point x="600" y="-24" type="curve" smooth="yes"/>
      <point x="918" y="-24"/>
      <point x="1093" y="160"/>
      <point x="1093" y="365" type="curve" smooth="yes"/>
      <point x="1093" y="506"/>
      <point x="1080" y="640"/>
      <point x="825" y="763" type="curve"/>
      <point x="914" y="795"/>
      <point x="1090" y="903"/>
      <point x="1090" y="1099" type="curve" smooth="yes"/>
      <point x="1090" y="1375"/>
      <point x="870" y="1489"/>
      <point x="625" y="1489" type="curve" smooth="yes"/>
      <point x="387" y="1489"/>
      <point x="149" y="1379"/>
      <point x="149" y="1101" type="curve" smooth="yes"/>
      <point x="149" y="925"/>
      <point x="278" y="800"/>
      <point x="391" y="747" type="curve"/>
      <point x="187" y="628"/>
      <point x="135" y="503"/>
      <point x="137" y="351" type="curve" smooth="yes"/>
      <point x="140" y="154"/>
      <point x="312" y="-24"/>
    </contour>
    <contour>
      <point x="615" y="142" type="curve" smooth="yes"/>
      <point x="457" y="143"/>
      <point x="369" y="242"/>
      <point x="360" y="362" type="curve" smooth="yes"/>
      <point x="351" y="479"/>
      <point x="385" y="593"/>
      <point x="533" y="687" type="curve"/>
      <point x="748" y="625"/>
      <point x="884" y="586"/>
      <point x="884" y="368" type="curve" smooth="yes"/>
      <point x="884" y="227"/>
      <point x="752" y="141"/>
    </contour>
    <contour>
      <point x="673" y="820" type="curve"/>
      <point x="468" y="885"/>
      <point x="362" y="914"/>
      <point x="362" y="1104" type="curve" smooth="yes"/>
      <point x="362" y="1253"/>
      <point x="475" y="1325"/>
      <point x="625" y="1325" type="curve" smooth="yes"/>
      <point x="784" y="1325"/>
      <point x="878" y="1241"/>
      <point x="878" y="1101" type="curve" smooth="yes"/>
      <point x="878" y="940"/>
      <point x="765" y="868"/>
    </contour>
  </outline>
</glyph>
<glyph name="nine" format="1">
  <advance width="1237"/>
  <unicode hex="0039"/>
  <outline>
    <contour>
      <point x="569" y="-24" type="curve" smooth="yes"/>
      <point x="895" y="-24"/>
      <point x="1112" y="267"/>
      <point x="1112" y="768" type="curve" smooth="yes"/>
      <point x="1112" y="1216"/>
      <point x="918" y="1489"/>
      <point x="581" y="1489" type="curve" smooth="yes"/>
      <point x="282" y="1489"/>
      <point x="109" y="1245"/>
      <point x="109" y="987" type="curve" smooth="yes"/>
      <point x="109" y="682"/>
      <point x="308" y="515"/>
      <point x="559" y="518" type="curve" smooth="yes"/>
      <point x="672" y="519"/>
      <point x="785" y="546"/>
      <point x="888" y="621" type="curve"/>
      <point x="874" y="268"/>
      <point x="741" y="141"/>
      <point x="557" y="140" type="curve" smooth="yes"/>
      <point x="473" y="140"/>
      <point x="375" y="166"/>
      <point x="275" y="225" type="curve"/>
      <point x="219" y="69" type="line"/>
      <point x="331" y="5"/>
      <point x="471" y="-24"/>
    </contour>
    <contour>
      <point x="586" y="675" type="curve" smooth="yes"/>
      <point x="406" y="674"/>
      <point x="320" y="759"/>
      <point x="320" y="991" type="curve" smooth="yes"/>
      <point x="320" y="1208"/>
      <point x="421" y="1324"/>
      <point x="581" y="1324" type="curve" smooth="yes"/>
      <point x="814" y="1324"/>
      <point x="888" y="1077"/>
      <point x="888" y="822" type="curve" smooth="yes"/>
      <point x="888" y="788" type="line"/>
      <point x="788" y="713"/>
      <point x="691" y="676"/>
    </contour>
  </outline>
</glyph>
<glyph name="colon" format="1">
  <advance width="482"/>
  <unicode hex="003A"/>
  <outline>
    <contour>
      <point x="125" y="171" type="line"/>
      <point x="366" y="171" type="line"/>
      <point x="366" y="404" type="line"/>
      <point x="125" y="404" type="line"/>
    </contour>
    <contour>
      <point x="125" y="808" type="line"/>
      <point x="366" y="808" type="line"/>
      <point x="366" y="1042" type="line"/>
      <point x="125" y="1042" type="line"/>
    </contour>
  </outline>
</glyph>
<glyph name="semicolon" format="1">
  <advance width="478"/>
  <unicode hex="003B"/>
  <outline>
    <contour>
      <point x="219" y="-287" type="line"/>
      <point x="359" y="-204"/>
      <point x="383" y="-87"/>
      <point x="384" y="103" type="curve"/>
      <point x="384" y="236" type="line"/>
      <point x="124" y="236" type="line"/>
      <point x="124" y="6" type="line"/>
      <point x="238" y="-7" type="line"/>
      <point x="238" y="-95"/>
      <point x="179" y="-170"/>
      <point x="148" y="-199" type="curve"/>
    </contour>
    <contour>
      <point x="123" y="808" type="line"/>
      <point x="368" y="808" type="line"/>
      <point x="368" y="1042" type="line"/>
      <point x="123" y="1042" type="line"/>
    </contour>
  </outline>
</glyph>
<glyph name="question" format="1">
  <advance width="1010"/>
  <unicode hex="003F"/>
  <outline>
    <contour>
      <point x="338" y="358" type="curve"/>
      <point x="519" y="358" type="line"/>
      <point x="737" y="723"/>
      <point x="941" y="805"/>
      <point x="941" y="1094" type="curve" smooth="yes"/>
      <point x="941" y="1294"/>
      <point x="816" y="1491"/>
      <point x="497" y="1491" type="curve" smooth="yes"/>
      <point x="329" y="1491"/>
      <point x="154" y="1440"/>
      <point x="35" y="1251" type="curve"/>
      <point x="174" y="1150" type="line"/>
      <point x="204" y="1196"/>
      <point x="298" y="1328"/>
      <point x="488" y="1328" type="curve" smooth="yes"/>
      <point x="672" y="1328"/>
      <point x="737" y="1227"/>
      <point x="737" y="1089" type="curve" smooth="yes"/>
      <point x="737" y="838"/>
      <point x="554" y="778"/>
    </contour>
    <contour>
      <point x="322" y="0" type="line"/>
      <point x="548" y="0" type="line"/>
      <point x="548" y="231" type="line"/>
      <point x="322" y="231" type="line"/>
    </contour>
  </outline>
</glyph>
<glyph name="at" format="1">
  <advance width="1704"/>
  <unicode hex="0040"/>
  <outline>
    <contour>
      <point x="842" y="-181" type="curve" smooth="yes"/>
      <point x="1006" y="-181"/>
      <point x="1153" y="-140"/>
      <point x="1288" y="-64" type="curve"/>
      <point x="1226" y="52" type="line"/>
      <point x="1149" y="11"/>
      <point x="1005" y="-39"/>
      <point x="847" y="-39" type="curve" smooth="yes"/>
      <point x="437" y="-39"/>
      <point x="267" y="211"/>
      <point x="267" y="509" type="curve" smooth="yes"/>
      <point x="267" y="805"/>
      <point x="504" y="1150"/>
      <point x="886" y="1150" type="curve" smooth="yes"/>
      <point x="1187" y="1150"/>
      <point x="1449" y="982"/>
      <point x="1449" y="650" type="curve" smooth="yes"/>
      <point x="1449" y="371"/>
      <point x="1373" y="271"/>
      <point x="1276" y="272" type="curve" smooth="yes"/>
      <point x="1218" y="273"/>
      <point x="1178" y="308"/>
      <point x="1188" y="375" type="curve" smooth="yes"/>
      <point x="1278" y="959" type="line"/>
      <point x="1142" y="959" type="line"/>
      <point x="1113" y="886" type="line"/>
      <point x="1046" y="944"/>
      <point x="953" y="982"/>
      <point x="868" y="982" type="curve" smooth="yes"/>
      <point x="616" y="982"/>
      <point x="429" y="721"/>
      <point x="429" y="467" type="curve" smooth="yes"/>
      <point x="429" y="284"/>
      <point x="549" y="116"/>
      <point x="764" y="109" type="curve" smooth="yes"/>
      <point x="894" y="104"/>
      <point x="1025" y="187"/>
      <point x="1078" y="297" type="curve"/>
      <point x="1102" y="179"/>
      <point x="1202" y="148"/>
      <point x="1258" y="147" type="curve" smooth="yes"/>
      <point x="1441" y="143"/>
      <point x="1615" y="317"/>
      <point x="1615" y="638" type="curve" smooth="yes"/>
      <point x="1615" y="1038"/>
      <point x="1273" y="1298"/>
      <point x="883" y="1298" type="curve" smooth="yes"/>
      <point x="385" y="1298"/>
      <point x="90" y="905"/>
      <point x="90" y="518" type="curve" smooth="yes"/>
      <point x="90" y="143"/>
      <point x="324" y="-181"/>
    </contour>
    <contour>
      <point x="782" y="243" type="curve" smooth="yes"/>
      <point x="676" y="243"/>
      <point x="605" y="336"/>
      <point x="605" y="464" type="curve" smooth="yes"/>
      <point x="605" y="697"/>
      <point x="725" y="850"/>
      <point x="880" y="850" type="curve" smooth="yes"/>
      <point x="951" y="850"/>
      <point x="1022" y="823"/>
      <point x="1083" y="774" type="curve"/>
      <point x="1047" y="546" type="line" smooth="yes"/>
      <point x="1007" y="293"/>
      <point x="872" y="243"/>
    </contour>
  </outline>
</glyph>
<glyph name="B" format="1">
  <advance width="1325"/>
  <unicode hex="0042"/>
  <outline>
    <contour>
      <point x="682" y="1464" type="move" name="top"/>
    </contour>
    <contour>
      <point x="139" y="0" type="line"/>
      <point x="558" y="0" type="line" smooth="yes"/>
      <point x="1016" y="0"/>
      <point x="1244" y="85"/>
      <point x="1244" y="413" type="curve" smooth="yes"/>
      <point x="1244" y="609"/>
      <point x="1176" y="749"/>
      <point x="958" y="779" type="curve"/>
      <point x="1160" y="811"/>
      <point x="1197" y="943"/>
      <point x="1197" y="1105" type="curve" smooth="yes"/>
      <point x="1198" y="1417"/>
      <point x="896" y="1464"/>
      <point x="594" y="1464" type="curve" smooth="yes"/>
      <point x="139" y="1464" type="line"/>
    </contour>
    <contour>
      <point x="344" y="154" type="line"/>
      <point x="344" y="704" type="line"/>
      <point x="625" y="704" type="line" smooth="yes"/>
      <point x="901" y="704"/>
      <point x="1040" y="674"/>
      <point x="1040" y="418" type="curve" smooth="yes"/>
      <point x="1040" y="160"/>
      <point x="812" y="154"/>
      <point x="591" y="154" type="curve" smooth="yes"/>
    </contour>
    <contour>
      <point x="344" y="853" type="line"/>
      <point x="344" y="1310" type="line"/>
      <point x="601" y="1310" type="line" smooth="yes"/>
      <point x="836" y="1310"/>
      <point x="993" y="1312"/>
      <point x="1002" y="1111" type="curve" smooth="yes"/>
      <point x="1012" y="893"/>
      <point x="933" y="853"/>
      <point x="624" y="853" type="curve" smooth="yes"/>
    </contour>
  </outline>
</glyph>
<glyph name="C" format="1">
  <advance width="1405"/>
  <unicode hex="0043"/>
  <outline>
    <contour>
      <point x="767" y="1464" type="move" name="top"/>
    </contour>
    <contour>
      <point x="738" y="0" type="move" name="bot"/>
    </contour>
    <contour>
      <point x="768" y="-24" type="curve" smooth="yes"/>
      <point x="1026" y="-24"/>
      <point x="1239" y="84"/>
      <point x="1327" y="357" type="curve"/>
      <point x="1137" y="401" type="line"/>
      <point x="1083" y="246"/>
      <point x="984" y="139"/>
      <point x="759" y="139" type="curve" smooth="yes"/>
      <point x="441" y="139"/>
      <point x="331" y="337"/>
      <point x="331" y="734" type="curve" smooth="yes"/>
      <point x="331" y="1131"/>
      <point x="441" y="1325"/>
      <point x="759" y="1325" type="curve" smooth="yes"/>
      <point x="984" y="1325"/>
      <point x="1083" y="1218"/>
      <point x="1137" y="1064" type="curve"/>
      <point x="1327" y="1108" type="line"/>
      <point x="1239" y="1381"/>
      <point x="1026" y="1489"/>
      <point x="768" y="1489" type="curve" smooth="yes"/>
      <point x="353" y="1489"/>
      <point x="115" y="1265"/>
      <point x="115" y="734" type="curve" smooth="yes"/>
      <point x="115" y="203"/>
      <point x="353" y="-24"/>
    </contour>
  </outline>
</glyph>
<glyph name="D" format="1">
  <advance width="1450"/>
  <unicode hex="0044"/>
  <outline>
    <contour>
      <point x="681" y="1464" type="move" name="top"/>
    </contour>
    <contour>
      <point x="344" y="157" type="line"/>
      <point x="344" y="1307" type="line"/>
      <point x="677" y="1307" type="line" smooth="yes"/>
      <point x="1031" y="1307"/>
      <point x="1129" y="1128"/>
      <point x="1129" y="737" type="curve" smooth="yes"/>
      <point x="1129" y="291"/>
      <point x="1002" y="157"/>
      <point x="618" y="157" type="curve" smooth="yes"/>
    </contour>
    <contour>
      <point x="139" y="0" type="line"/>
      <point x="678" y="0" type="line" smooth="yes"/>
      <point x="1143" y="0"/>
      <point x="1335" y="211"/>
      <point x="1335" y="738" type="curve" smooth="yes"/>
      <point x="1335" y="1280"/>
      <point x="1114" y="1464"/>
      <point x="678" y="1464" type="curve" smooth="yes"/>
      <point x="139" y="1464" type="line"/>
    </contour>
  </outline>
</glyph>
<glyph name="E" format="1">
  <advance width="1225"/>
  <unicode hex="0045"/>
  <outline>
    <contour>
      <point x="684" y="1464" type="move" name="top"/>
    </contour>
    <contour>
      <point x="139" y="0" type="line"/>
      <point x="1154" y="0" type="line"/>
      <point x="1154" y="154" type="line"/>
      <point x="344" y="154" type="line"/>
      <point x="344" y="700" type="line"/>
      <point x="1040" y="700" type="line"/>
      <point x="1040" y="857" type="line"/>
      <point x="344" y="857" type="line"/>
      <point x="344" y="1310" type="line"/>
      <point x="1143" y="1310" type="line"/>
      <point x="1143" y="1464" type="line"/>
      <point x="139" y="1464" type="line"/>
    </contour>
  </outline>
</glyph>
<glyph name="J" format="1">
  <advance width="1040"/>
  <unicode hex="004A"/>
  <outline>
    <contour>
      <point x="803" y="1464" type="move" name="top"/>
    </contour>
    <contour>
      <point x="447" y="-21" type="curve" smooth="yes"/>
      <point x="763" y="-21"/>
      <point x="904" y="166"/>
      <point x="904" y="544" type="curve" smooth="yes"/>
      <point x="904" y="1464" type="line"/>
      <point x="699" y="1464" type="line"/>
      <point x="699" y="541" type="line" smooth="yes"/>
      <point x="699" y="281"/>
      <point x="648" y="145"/>
      <point x="454" y="145" type="curve" smooth="yes"/>
      <point x="344" y="145"/>
      <point x="255" y="212"/>
      <point x="217" y="383" type="curve"/>
      <point x="32" y="332" type="line"/>
      <point x="75" y="115"/>
      <point x="217" y="-21"/>
    </contour>
  </outline>
</glyph>
<glyph name="K" format="1">
  <advance width="1291"/>
  <unicode hex="004B"/>
  <outline>
    <contour>
      <point x="665" y="1464" type="move" name="top"/>
    </contour>
    <contour>
      <point x="666" y="0" type="move" name="bot"/>
    </contour>
    <contour>
      <point x="139" y="0" type="line"/>
      <point x="344" y="0" type="line"/>
      <point x="344" y="540" type="line"/>
      <point x="572" y="776" type="line"/>
      <point x="1063" y="0" type="line"/>
      <point x="1296" y="0" type="line"/>
      <point x="712" y="920" type="line"/>
      <point x="1240" y="1464" type="line"/>
      <point x="993" y="1464" type="line"/>
      <point x="344" y="783" type="line"/>
      <point x="344" y="1464" type="line"/>
      <point x="139" y="1464" type="line"/>
    </contour>
  </outline>
</glyph>
<glyph name="L" format="1">
  <advance width="1066"/>
  <unicode hex="004C"/>
  <outline>
    <contour>
      <point x="677" y="1474" type="move" name="top"/>
    </contour>
    <contour>
      <point x="520" y="1023" type="move" name="caron.alt"/>
    </contour>
    <contour>
      <point x="612" y="0" type="move" name="bot"/>
    </contour>
    <contour>
      <point x="139" y="0" type="line"/>
      <point x="1075" y="0" type="line"/>
      <point x="1075" y="154" type="line"/>
      <point x="344" y="154" type="line"/>
      <point x="344" y="1464" type="line"/>
      <point x="139" y="1464" type="line"/>
    </contour>
  </outline>
</glyph>
<glyph name="R" format="1">
  <advance width="1332"/>
  <unicode hex="0052"/>
  <outline>
    <contour>
      <point x="645" y="1464" type="move" name="top"/>
    </contour>
    <contour>
      <point x="666" y="0" type="move" name="bot"/>
    </contour>
    <contour>
      <point x="139" y="0" type="line"/>
      <point x="344" y="0" type="line"/>
      <point x="344" y="665" type="line"/>
      <point x="728" y="665" type="line"/>
      <point x="1060" y="0" type="line"/>
      <point x="1281" y="0" type="line"/>
      <point x="934" y="693" type="line"/>
      <point x="1133" y="732"/>
      <point x="1248" y="875"/>
      <point x="1248" y="1076" type="curve" smooth="yes"/>
      <point x="1248" y="1339"/>
      <point x="1094" y="1464"/>
      <point x="707" y="1464" type="curve" smooth="yes"/>
      <point x="139" y="1464" type="line"/>
    </contour>
    <contour>
      <point x="344" y="820" type="line"/>
      <point x="344" y="1309" type="line"/>
      <point x="698" y="1309" type="line" smooth="yes"/>
      <point x="899" y="1309"/>
      <point x="1039" y="1276"/>
      <point x="1039" y="1074" type="curve" smooth="yes"/>
      <point x="1039" y="864"/>
      <point x="891" y="820"/>
      <point x="677" y="820" type="curve" smooth="yes"/>
    </contour>
  </outline>
</glyph>
<glyph name="T" format="1">
  <advance width="1119"/>
  <unicode hex="0054"/>
  <outline>
    <contour>
      <point x="582" y="1464" type="move" name="top"/>
    </contour>
    <contour>
      <point x="575" y="0" type="move" name="bot"/>
    </contour>
    <contour>
      <point x="468" y="0" type="line"/>
      <point x="673" y="0" type="line"/>
      <point x="673" y="1310" type="line"/>
      <point x="1110" y="1310" type="line"/>
      <point x="1110" y="1464" type="line"/>
      <point x="9" y="1464" type="line"/>
      <point x="9" y="1310" type="line"/>
      <point x="468" y="1310" type="line"/>
    </contour>
  </outline>
</glyph>
<glyph name="V" format="1">
  <advance width="1164"/>
  <unicode hex="0056"/>
  <outline>
    <contour>
      <point x="484" y="0" type="line"/>
      <point x="681" y="0" type="line"/>
      <point x="1174" y="1464" type="line"/>
      <point x="972" y="1464" type="line"/>
      <point x="588" y="268" type="line"/>
      <point x="201" y="1464" type="line"/>
      <point x="-12" y="1464" type="line"/>
    </contour>
  </outline>
</glyph>
<glyph name="Y" format="1">
  <advance width="1205"/>
  <unicode hex="0059"/>
  <outline>
    <contour>
      <point x="626" y="1464" type="move" name="top"/>
    </contour>
    <contour>
      <point x="503" y="0" type="line"/>
      <point x="706" y="0" type="line"/>
      <point x="706" y="548" type="line"/>
      <point x="1207" y="1464" type="line"/>
      <point x="988" y="1464" type="line"/>
      <point x="606" y="734" type="line"/>
      <point x="218" y="1464" type="line"/>
      <point x="-2" y="1464" type="line"/>
      <point x="503" y="549" type="line"/>
    </contour>
  </outline>
</glyph>
<glyph name="grave" format="1">
  <advance width="496"/>
  <unicode hex="0060"/>
  <outline>
    <contour>
      <point x="415" y="1023" type="move" name="_top"/>
    </contour>
    <contour>
      <point x="349" y="1154" type="line"/>
      <point x="481" y="1154" type="line"/>
      <point x="278" y="1474" type="line"/>
      <point x="7" y="1474" type="line"/>
    </contour>
  </outline>
</glyph>
<glyph name="d" format="1">
  <advance width="1137"/>
  <unicode hex="0064"/>
  <outline>
    <contour>
      <point x="940" y="1023" type="move" name="caron.alt"/>
    </contour>
    <contour>
      <point x="530" y="-24" type="curve" smooth="yes"/>
      <point x="680" y="-24"/>
      <point x="787" y="41"/>
      <point x="851" y="149" type="curve"/>
      <point x="860" y="3" type="line"/>
      <point x="1012" y="3" type="line"/>
      <point x="1012" y="1477" type="line"/>
      <point x="814" y="1477" type="line"/>
      <point x="814" y="908" type="line"/>
      <point x="752" y="992"/>
      <point x="659" y="1046"/>
      <point x="533" y="1046" type="curve" smooth="yes"/>
      <point x="274" y="1046"/>
      <point x="91" y="870"/>
      <point x="91" y="519" type="curve" smooth="yes"/>
      <point x="91" y="175"/>
      <point x="251" y="-24"/>
    </contour>
    <contour>
      <point x="543" y="116" type="curve" smooth="yes"/>
      <point x="367" y="125"/>
      <point x="293" y="253"/>
      <point x="293" y="521" type="curve" smooth="yes"/>
      <point x="293" y="773"/>
      <point x="372" y="900"/>
      <point x="540" y="906" type="curve" smooth="yes"/>
      <point x="682" y="910"/>
      <point x="824" y="826"/>
      <point x="824" y="522" type="curve" smooth="yes"/>
      <point x="824" y="274"/>
      <point x="754" y="106"/>
    </contour>
  </outline>
</glyph>
<glyph name="e" format="1">
  <advance width="1030"/>
  <unicode hex="0065"/>
  <outline>
    <contour>
      <point x="543" y="1023" type="move" name="top"/>
    </contour>
    <contour>
      <point x="645" y="0" type="move" name="ogonek"/>
    </contour>
    <contour>
      <point x="552" y="-24" type="curve" smooth="yes"/>
      <point x="742" y="-24"/>
      <point x="893" y="89"/>
      <point x="940" y="267" type="curve"/>
      <point x="791" y="300" type="line"/>
      <point x="756" y="202"/>
      <point x="688" y="117"/>
      <point x="549" y="117" type="curve" smooth="yes"/>
      <point x="360" y="117"/>
      <point x="292" y="297"/>
      <point x="289" y="474" type="curve"/>
      <point x="956" y="474" type="line"/>
      <point x="958" y="491"/>
      <point x="959" y="558"/>
      <point x="959" y="567" type="curve" smooth="yes"/>
      <point x="959" y="840"/>
      <point x="828" y="1046"/>
      <point x="543" y="1046" type="curve" smooth="yes"/>
      <point x="256" y="1046"/>
      <point x="91" y="839"/>
      <point x="91" y="512" type="curve" smooth="yes"/>
      <point x="91" y="219"/>
      <point x="231" y="-24"/>
    </contour>
    <contour>
      <point x="289" y="604" type="line"/>
      <point x="296" y="733"/>
      <point x="358" y="905"/>
      <point x="540" y="905" type="curve" smooth="yes"/>
      <point x="709" y="905"/>
      <point x="773" y="799"/>
      <point x="773" y="604" type="curve"/>
    </contour>
  </outline>
</glyph>
<glyph name="f" format="1">
  <advance width="637"/>
  <unicode hex="0066"/>
  <outline>
    <contour>
      <point x="372" y="1449" type="move" name="top"/>
    </contour>
    <contour>
      <point x="201" y="0" type="line"/>
      <point x="399" y="0" type="line"/>
      <point x="399" y="878" type="line"/>
      <point x="612" y="878" type="line"/>
      <point x="612" y="1023" type="line"/>
      <point x="399" y="1023" type="line"/>
      <point x="399" y="1144" type="line" smooth="yes"/>
      <point x="398" y="1287"/>
      <point x="411" y="1323"/>
      <point x="499" y="1323" type="curve" smooth="yes"/>
      <point x="533" y="1323"/>
      <point x="572" y="1311"/>
      <point x="605" y="1294" type="curve"/>
      <point x="655" y="1425" type="line"/>
      <point x="614" y="1448"/>
      <point x="536" y="1474"/>
      <point x="476" y="1474" type="curve" smooth="yes"/>
      <point x="297" y="1474"/>
      <point x="201" y="1406"/>
      <point x="201" y="1136" type="curve" smooth="yes"/>
      <point x="201" y="1023" type="line"/>
      <point x="27" y="1023" type="line"/>
      <point x="27" y="878" type="line"/>
      <point x="201" y="878" type="line"/>
    </contour>
  </outline>
</glyph>
<glyph name="g" format="1">
  <advance width="1145"/>
  <unicode hex="0067"/>
  <outline>
    <contour>
      <point x="544" y="1023" type="move" name="top"/>
    </contour>
    <contour>
      <point x="558" y="-467" type="curve" smooth="yes"/>
      <point x="842" y="-466"/>
      <point x="1028" y="-314"/>
      <point x="1028" y="27" type="curve" smooth="yes"/>
      <point x="1028" y="1023" type="line"/>
      <point x="859" y="1023" type="line"/>
      <point x="840" y="877" type="line"/>
      <point x="777" y="978"/>
      <point x="675" y="1046"/>
      <point x="535" y="1046" type="curve" smooth="yes"/>
      <point x="276" y="1046"/>
      <point x="87" y="863"/>
      <point x="87" y="517" type="curve" smooth="yes"/>
      <point x="87" y="181"/>
      <point x="258" y="-24"/>
      <point x="537" y="-24" type="curve" smooth="yes"/>
      <point x="667" y="-24"/>
      <point x="765" y="24"/>
      <point x="830" y="107" type="curve"/>
      <point x="830" y="30" type="line" smooth="yes"/>
      <point x="830" y="-187"/>
      <point x="766" y="-316"/>
      <point x="561" y="-318" type="curve" smooth="yes"/>
      <point x="406" y="-320"/>
      <point x="320" y="-261"/>
      <point x="256" y="-180" type="curve"/>
      <point x="149" y="-290" type="line"/>
      <point x="225" y="-385"/>
      <point x="373" y="-467"/>
    </contour>
    <contour>
      <point x="548" y="116" type="curve" smooth="yes"/>
      <point x="376" y="116"/>
      <point x="289" y="251"/>
      <point x="288" y="519" type="curve" smooth="yes"/>
      <point x="287" y="764"/>
      <point x="384" y="906"/>
      <point x="547" y="906" type="curve" smooth="yes"/>
      <point x="694" y="906"/>
      <point x="831" y="841"/>
      <point x="831" y="490" type="curve" smooth="yes"/>
      <point x="831" y="248"/>
      <point x="768" y="116"/>
    </contour>
  </outline>
</glyph>
<glyph name="h" format="1">
  <advance width="1125"/>
  <unicode hex="0068"/>
  <outline>
    <contour>
      <point x="687" y="1296" type="move" name="top"/>
    </contour>
    <contour>
      <point x="125" y="0" type="line"/>
      <point x="324" y="0" type="line"/>
      <point x="324" y="537" type="line" smooth="yes"/>
      <point x="332" y="733"/>
      <point x="399" y="905"/>
      <point x="610" y="905" type="curve" smooth="yes"/>
      <point x="763" y="905"/>
      <point x="812" y="803"/>
      <point x="812" y="602" type="curve" smooth="yes"/>
      <point x="812" y="0" type="line"/>
      <point x="1010" y="0" type="line"/>
      <point x="1010" y="593" type="line" smooth="yes"/>
      <point x="1010" y="799"/>
      <point x="973" y="1044"/>
      <point x="650" y="1044" type="curve" smooth="yes"/>
      <point x="499" y="1044"/>
      <point x="393" y="986"/>
      <point x="324" y="883" type="curve"/>
      <point x="324" y="1474" type="line"/>
      <point x="125" y="1474" type="line"/>
    </contour>
  </outline>
</glyph>
<glyph name="i" format="1">
  <advance width="461"/>
  <unicode hex="0069"/>
  <outline>
    <contour>
      <point x="139" y="0" type="line"/>
      <point x="337" y="0" type="line"/>
      <point x="337" y="1023" type="line"/>
      <point x="139" y="1023" type="line"/>
    </contour>
    <contour>
      <point x="135" y="1233" type="line"/>
      <point x="339" y="1233" type="line"/>
      <point x="339" y="1468" type="line"/>
      <point x="135" y="1468" type="line"/>
    </contour>
  </outline>
</glyph>
<glyph name="l" format="1">
  <advance width="472"/>
  <unicode hex="006C"/>
  <outline>
    <contour>
      <point x="292" y="1474" type="move" name="top"/>
    </contour>
    <contour>
      <point x="332" y="1023" type="move" name="caron.alt"/>
    </contour>
    <contour>
      <point x="242" y="0" type="move" name="bot"/>
    </contour>
    <contour>
      <point x="138" y="0" type="line"/>
      <point x="336" y="0" type="line"/>
      <point x="336" y="1474" type="line"/>
      <point x="138" y="1474" type="line"/>
    </contour>
  </outline>
</glyph>
<glyph name="n" format="1">
  <advance width="1126"/>
  <unicode hex="006E"/>
  <outline>
    <contour>
      <point x="615" y="1023" type="move" name="top"/>
    </contour>
    <contour>
      <point x="570" y="0" type="move" name="bot"/>
    </contour>
    <contour>
      <point x="125" y="0" type="line"/>
      <point x="323" y="0" type="line"/>
      <point x="323" y="506" type="line"/>
      <point x="325" y="704"/>
      <point x="391" y="906"/>
      <point x="613" y="906" type="curve" smooth="yes"/>
      <point x="767" y="906"/>
      <point x="812" y="800"/>
      <point x="812" y="599" type="curve" smooth="yes"/>
      <point x="812" y="0" type="line"/>
      <point x="1010" y="0" type="line"/>
      <point x="1010" y="593" type="line" smooth="yes"/>
      <point x="1010" y="798"/>
      <point x="973" y="1046"/>
      <point x="650" y="1046" type="curve" smooth="yes"/>
      <point x="499" y="1046"/>
      <point x="392" y="989"/>
      <point x="323" y="884" type="curve"/>
      <point x="323" y="1023" type="line"/>
      <point x="125" y="1023" type="line"/>
    </contour>
  </outline>
</glyph>
<glyph name="s" format="1">
  <advance width="927"/>
  <unicode hex="0073"/>
  <outline>
    <contour>
      <point x="486" y="1023" type="move" name="top"/>
    </contour>
    <contour>
      <point x="474" y="0" type="move" name="bot"/>
    </contour>
    <contour>
      <point x="459" y="-24" type="curve" smooth="yes"/>
      <point x="747" y="-24"/>
      <point x="861" y="85"/>
      <point x="861" y="285" type="curve" smooth="yes"/>
      <point x="861" y="482"/>
      <point x="763" y="544"/>
      <point x="501" y="602" type="curve" smooth="yes"/>
      <point x="328" y="640"/>
      <point x="277" y="657"/>
      <point x="280" y="761" type="curve" smooth="yes"/>
      <point x="282" y="863"/>
      <point x="327" y="906"/>
      <point x="489" y="906" type="curve" smooth="yes"/>
      <point x="616" y="906"/>
      <point x="674" y="875"/>
      <point x="726" y="777" type="curve"/>
      <point x="726" y="778"/>
      <point x="848" y="847"/>
      <point x="848" y="847" type="curve"/>
      <point x="776" y="995"/>
      <point x="663" y="1046"/>
      <point x="482" y="1046" type="curve" smooth="yes"/>
      <point x="250" y="1046"/>
      <point x="95" y="946"/>
      <point x="95" y="761" type="curve" smooth="yes"/>
      <point x="95" y="558"/>
      <point x="191" y="507"/>
      <point x="411" y="457" type="curve" smooth="yes"/>
      <point x="661" y="400"/>
      <point x="691" y="396"/>
      <point x="690" y="261" type="curve" smooth="yes"/>
      <point x="688" y="148"/>
      <point x="605" y="116"/>
      <point x="474" y="116" type="curve" smooth="yes"/>
      <point x="311" y="116"/>
      <point x="259" y="156"/>
      <point x="210" y="284" type="curve"/>
      <point x="65" y="225" type="line"/>
      <point x="117" y="34"/>
      <point x="282" y="-24"/>
    </contour>
  </outline>
</glyph>
<glyph name="x" format="1">
  <advance width="976"/>
  <unicode hex="0078"/>
  <outline>
    <contour>
      <point x="10" y="0" type="line"/>
      <point x="220" y="0" type="line"/>
      <point x="485" y="370" type="line"/>
      <point x="756" y="0" type="line"/>
      <point x="973" y="0" type="line"/>
      <point x="599" y="511" type="line"/>
      <point x="969" y="1023" type="line"/>
      <point x="759" y="1023" type="line"/>
      <point x="498" y="648" type="line"/>
      <point x="223" y="1023" type="line"/>
      <point x="6" y="1023" type="line"/>
      <point x="382" y="509" type="line"/>
    </contour>
  </outline>
</glyph>
<glyph name="y" format="1">
  <advance width="987"/>
  <unicode hex="0079"/>
  <outline>
    <contour>
      <point x="500" y="1023" type="move" name="top"/>
    </contour>
    <contour>
      <point x="166" y="-318" type="curve" smooth="yes"/>
      <point x="384" y="-319"/>
      <point x="480" y="-197"/>
      <point x="588" y="74" type="curve" smooth="yes"/>
      <point x="965" y="1023" type="line"/>
      <point x="769" y="1023" type="line"/>
      <point x="502" y="325" type="line"/>
      <point x="231" y="1023" type="line"/>
      <point x="27" y="1023" type="line"/>
      <point x="400" y="121" type="line"/>
      <point x="386" y="76" type="line" smooth="yes"/>
      <point x="326" y="-109"/>
      <point x="263" y="-148"/>
      <point x="148" y="-148" type="curve" smooth="yes"/>
      <point x="128" y="-148"/>
      <point x="106" y="-145"/>
      <point x="81" y="-141" type="curve"/>
      <point x="58" y="-303" type="line"/>
      <point x="95" y="-313"/>
      <point x="133" y="-317"/>
    </contour>
  </outline>
</glyph>
<glyph name="braceleft" format="1">
  <advance width="644"/>
  <unicode hex="007B"/>
  <outline>
    <contour>
      <point x="624" y="-130" type="curve"/>
      <point x="624" y="-6" type="line"/>
      <point x="399" y="-6"/>
      <point x="379" y="46"/>
      <point x="379" y="381" type="curve" smooth="yes"/>
      <point x="379" y="563"/>
      <point x="341" y="676"/>
      <point x="212" y="707" type="curve"/>
      <point x="341" y="738"/>
      <point x="379" y="851"/>
      <point x="379" y="1033" type="curve" smooth="yes"/>
      <point x="379" y="1368"/>
      <point x="399" y="1420"/>
      <point x="624" y="1420" type="curve"/>
      <point x="624" y="1544" type="line"/>
      <point x="231" y="1544"/>
      <point x="166" y="1414"/>
      <point x="166" y="1043" type="curve" smooth="yes"/>
      <point x="166" y="912"/>
      <point x="168" y="784"/>
      <point x="3" y="772" type="curve"/>
      <point x="3" y="642" type="line"/>
      <point x="168" y="630"/>
      <point x="166" y="502"/>
      <point x="166" y="371" type="curve" smooth="yes"/>
      <point x="166" y="0"/>
      <point x="231" y="-130"/>
    </contour>
  </outline>
</glyph>
<glyph name="braceright" format="1">
  <advance width="644"/>
  <unicode hex="007D"/>
  <outline>
    <contour>
      <point x="3" y="-130" type="line"/>
      <point x="396" y="-130"/>
      <point x="461" y="0"/>
      <point x="461" y="371" type="curve" smooth="yes"/>
      <point x="461" y="502"/>
      <point x="459" y="630"/>
      <point x="624" y="642" type="curve"/>
      <point x="624" y="772" type="line"/>
      <point x="459" y="784"/>
      <point x="461" y="912"/>
      <point x="461" y="1043" type="curve" smooth="yes"/>
      <point x="461" y="1414"/>
      <point x="396" y="1544"/>
      <point x="3" y="1544" type="curve"/>
      <point x="3" y="1420" type="line"/>
      <point x="228" y="1420"/>
      <point x="248" y="1368"/>
      <point x="248" y="1033" type="curve" smooth="yes"/>
      <point x="248" y="851"/>
      <point x="286" y="738"/>
      <point x="415" y="707" type="curve"/>
      <point x="286" y="676"/>
      <point x="248" y="563"/>
      <point x="248" y="381" type="curve" smooth="yes"/>
      <point x="248" y="46"/>
      <point x="228" y="-6"/>
      <point x="3" y="-6" type="curve"/>
    </contour>
  </outline>
</glyph>
<glyph name="asciitilde" format="1">
  <advance width="962"/>
  <unicode hex="007E"/>
  <outline>
    <contour>
      <point x="781" y="675" type="curve" smooth="yes"/>
      <point x="888" y="678"/>
      <point x="940" y="778"/>
      <point x="949" y="970" type="curve"/>
      <point x="783" y="970" type="line"/>
      <point x="765" y="895"/>
      <point x="761" y="866"/>
      <point x="704" y="866" type="curve" smooth="yes"/>
      <point x="630" y="866"/>
      <point x="353" y="977"/>
      <point x="209" y="971" type="curve" smooth="yes"/>
      <point x="117" y="967"/>
      <point x="28" y="920"/>
      <point x="13" y="683" type="curve"/>
      <point x="179" y="683" type="line"/>
      <point x="200" y="778"/>
      <point x="225" y="785"/>
      <point x="257" y="785" type="curve" smooth="yes"/>
      <point x="354" y="785"/>
      <point x="597" y="669"/>
    </contour>
  </outline>
</glyph>
<glyph name="yen" format="1">
  <advance width="1162"/>
  <unicode hex="00A5"/>
  <outline>
    <contour>
      <point x="224" y="310" type="line"/>
      <point x="942" y="310" type="line"/>
      <point x="942" y="430" type="line"/>
      <point x="224" y="430" type="line"/>
    </contour>
    <contour>
      <point x="224" y="542" type="line"/>
      <point x="942" y="542" type="line"/>
      <point x="942" y="661" type="line"/>
      <point x="224" y="661" type="line"/>
    </contour>
    <component base="Y"/>
  </outline>
</glyph>
<glyph name="section" format="1">
  <advance width="1005"/>
  <unicode hex="00A7"/>
  <outline>
    <contour>
      <point x="539" y="-24" type="curve" smooth="yes"/>
      <point x="768" y="-24"/>
      <point x="911" y="74"/>
      <point x="914" y="263" type="curve" smooth="yes"/>
      <point x="916" y="364"/>
      <point x="847" y="433"/>
      <point x="772" y="483" type="curve"/>
      <point x="870" y="583"/>
      <point x="877" y="645"/>
      <point x="883" y="712" type="curve" smooth="yes"/>
      <point x="906" y="1000"/>
      <point x="338" y="1045"/>
      <point x="347" y="1212" type="curve" smooth="yes"/>
      <point x="348" y="1282"/>
      <point x="406" y="1329"/>
      <point x="529" y="1331" type="curve" smooth="yes"/>
      <point x="621" y="1332"/>
      <point x="699" y="1311"/>
      <point x="756" y="1204" type="curve"/>
      <point x="756" y="1205"/>
      <point x="884" y="1284"/>
      <point x="884" y="1284" type="curve"/>
      <point x="812" y="1436"/>
      <point x="706" y="1489"/>
      <point x="529" y="1489" type="curve" smooth="yes"/>
      <point x="310" y="1489"/>
      <point x="150" y="1391"/>
      <point x="150" y="1204" type="curve" smooth="yes"/>
      <point x="150" y="1086"/>
      <point x="228" y="1028"/>
      <point x="296" y="987" type="curve"/>
      <point x="186" y="896"/>
      <point x="159" y="823"/>
      <point x="158" y="755" type="curve" smooth="yes"/>
      <point x="152" y="431"/>
      <point x="765" y="425"/>
      <point x="737" y="248" type="curve" smooth="yes"/>
      <point x="728" y="186"/>
      <point x="679" y="140"/>
      <point x="542" y="140" type="curve" smooth="yes"/>
      <point x="412" y="140"/>
      <point x="318" y="189"/>
      <point x="270" y="324" type="curve"/>
      <point x="127" y="273" type="line"/>
      <point x="167" y="49"/>
      <point x="374" y="-24"/>
    </contour>
    <contour>
      <point x="633" y="553" type="curve"/>
      <point x="368" y="670"/>
      <point x="223" y="711"/>
      <point x="413" y="921" type="curve"/>
      <point x="707" y="798"/>
      <point x="769" y="753"/>
    </contour>
  </outline>
</glyph>
<glyph name="ordfeminine" format="1">
  <advance width="946"/>
  <unicode hex="00AA"/>
  <outline>
    <contour>
      <point x="412" y="583" type="curve" smooth="yes"/>
      <point x="524" y="587"/>
      <point x="598" y="641"/>
      <point x="647" y="699" type="curve"/>
      <point x="665" y="603" type="line"/>
      <point x="815" y="603" type="line"/>
      <point x="815" y="1141" type="line" smooth="yes"/>
      <point x="815" y="1359"/>
      <point x="694" y="1474"/>
      <point x="495" y="1474" type="curve" smooth="yes"/>
      <point x="398" y="1474"/>
      <point x="260" y="1422"/>
      <point x="185" y="1340" type="curve"/>
      <point x="185" y="1340"/>
      <point x="293" y="1241"/>
      <point x="293" y="1240" type="curve"/>
      <point x="350" y="1296"/>
      <point x="420" y="1335"/>
      <point x="497" y="1335" type="curve" smooth="yes"/>
      <point x="590" y="1335"/>
      <point x="643" y="1277"/>
      <point x="643" y="1164" type="curve" smooth="yes"/>
      <point x="643" y="1111" type="line"/>
      <point x="554" y="1104" type="line" smooth="yes"/>
      <point x="324" y="1085"/>
      <point x="147" y="1018"/>
      <point x="147" y="804" type="curve" smooth="yes"/>
      <point x="147" y="656"/>
      <point x="276" y="578"/>
    </contour>
    <contour>
      <point x="413" y="693" type="curve" smooth="yes"/>
      <point x="332" y="701"/>
      <point x="296" y="753"/>
      <point x="305" y="832" type="curve" smooth="yes"/>
      <point x="316" y="918"/>
      <point x="364" y="965"/>
      <point x="554" y="983" type="curve" smooth="yes"/>
      <point x="643" y="991" type="line"/>
      <point x="643" y="805" type="line"/>
      <point x="593" y="749"/>
      <point x="495" y="685"/>
    </contour>
  </outline>
</glyph>
<glyph name="guillemotleft" format="1">
  <advance width="946"/>
  <unicode hex="00AB"/>
  <outline>
    <contour>
      <point x="458" y="234" type="line"/>
      <point x="458" y="431" type="line"/>
      <point x="143" y="650" type="line"/>
      <point x="458" y="867" type="line"/>
      <point x="458" y="1065" type="line"/>
      <point x="5" y="788" type="line"/>
      <point x="5" y="511" type="line"/>
    </contour>
    <contour>
      <point x="938" y="234" type="line"/>
      <point x="938" y="431" type="line"/>
      <point x="623" y="650" type="line"/>
      <point x="938" y="867" type="line"/>
      <point x="938" y="1065" type="line"/>
      <point x="485" y="788" type="line"/>
      <point x="485" y="511" type="line"/>
    </contour>
  </outline>
</glyph>
<glyph name="degree" format="1">
  <advance width="483"/>
  <unicode hex="00B0"/>
  <outline>
    <contour>
      <point x="240" y="1133" type="curve"/>
      <point x="161" y="1133"/>
      <point x="117" y="1193"/>
      <point x="117" y="1267" type="curve"/>
      <point x="117" y="1341"/>
      <point x="161" y="1401"/>
      <point x="240" y="1401" type="curve"/>
      <point x="319" y="1401"/>
      <point x="363" y="1341"/>
      <point x="363" y="1267" type="curve"/>
      <point x="363" y="1193"/>
      <point x="319" y="1133"/>
    </contour>
    <contour>
      <point x="240" y="1016" type="curve"/>
      <point x="404" y="1016"/>
      <point x="498" y="1136"/>
      <point x="498" y="1267" type="curve"/>
      <point x="498" y="1398"/>
      <point x="404" y="1518"/>
      <point x="240" y="1518" type="curve"/>
      <point x="76" y="1518"/>
      <point x="-18" y="1398"/>
      <point x="-18" y="1267" type="curve"/>
      <point x="-18" y="1136"/>
      <point x="76" y="1016"/>
    </contour>
  </outline>
</glyph>
<glyph name="twosuperior" format="1">
  <advance width="1243"/>
  <unicode hex="00B2"/>
  <outline>
    <contour>
      <point x="318" y="553" type="curve"/>
      <point x="906" y="553" type="line"/>
      <point x="906" y="662" type="line"/>
      <point x="480" y="662" type="line"/>
      <point x="603" y="856"/>
      <point x="912" y="932"/>
      <point x="905" y="1209" type="curve" smooth="yes"/>
      <point x="900" y="1398"/>
      <point x="777" y="1489"/>
      <point x="611" y="1489" type="curve" smooth="yes"/>
      <point x="470" y="1489"/>
      <point x="361" y="1429"/>
      <point x="290" y="1269" type="curve"/>
      <point x="293" y="1268"/>
      <point x="411" y="1218"/>
      <point x="411" y="1218" type="curve"/>
      <point x="459" y="1324"/>
      <point x="523" y="1377"/>
      <point x="617" y="1377" type="curve" smooth="yes"/>
      <point x="708" y="1377"/>
      <point x="765" y="1309"/>
      <point x="765" y="1209" type="curve" smooth="yes"/>
      <point x="765" y="936"/>
      <point x="322" y="891"/>
    </contour>
  </outline>
</glyph>
<glyph name="threesuperior" format="1">
  <advance width="1151"/>
  <unicode hex="00B3"/>
  <outline>
    <contour>
      <point x="566" y="533" type="curve" smooth="yes"/>
      <point x="763" y="532"/>
      <point x="868" y="670"/>
      <point x="868" y="802" type="curve"/>
      <point x="867" y="913"/>
      <point x="823" y="1021"/>
      <point x="685" y="1063" type="curve"/>
      <point x="790" y="1102"/>
      <point x="823" y="1187"/>
      <point x="823" y="1275" type="curve" smooth="yes"/>
      <point x="823" y="1398"/>
      <point x="722" y="1487"/>
      <point x="558" y="1487" type="curve" smooth="yes"/>
      <point x="451" y="1487"/>
      <point x="355" y="1438"/>
      <point x="296" y="1338" type="curve"/>
      <point x="395" y="1277" type="line"/>
      <point x="444" y="1354"/>
      <point x="497" y="1378"/>
      <point x="562" y="1378" type="curve" smooth="yes"/>
      <point x="642" y="1378"/>
      <point x="688" y="1330"/>
      <point x="688" y="1264" type="curve" smooth="yes"/>
      <point x="688" y="1180"/>
      <point x="663" y="1110"/>
      <point x="492" y="1110" type="curve"/>
      <point x="492" y="1003" type="line"/>
      <point x="641" y="1003"/>
      <point x="732" y="957"/>
      <point x="727" y="799" type="curve" smooth="yes"/>
      <point x="725" y="717"/>
      <point x="676" y="641"/>
      <point x="558" y="644" type="curve" smooth="yes"/>
      <point x="464" y="648"/>
      <point x="420" y="700"/>
      <point x="389" y="788" type="curve"/>
      <point x="274" y="748" type="line"/>
      <point x="312" y="591"/>
      <point x="427" y="534"/>
    </contour>
  </outline>
</glyph>
<glyph name="paragraph" format="1">
  <advance width="1038"/>
  <unicode hex="00B6"/>
  <outline>
    <contour>
      <point x="403" y="0" type="line"/>
      <point x="579" y="0" type="line"/>
      <point x="579" y="1303" type="line"/>
      <point x="698" y="1303" type="line"/>
      <point x="698" y="0" type="line"/>
      <point x="874" y="0" type="line"/>
      <point x="874" y="1303" type="line"/>
      <point x="1006" y="1303" type="line"/>
      <point x="1006" y="1464" type="line"/>
      <point x="563" y="1464" type="line" smooth="yes"/>
      <point x="155" y="1464"/>
      <point x="67" y="1305"/>
      <point x="67" y="1126" type="curve" smooth="yes"/>
      <point x="67" y="930"/>
      <point x="189" y="799"/>
      <point x="403" y="799" type="curve"/>
    </contour>
  </outline>
</glyph>
<glyph name="onesuperior" format="1">
  <advance width="848"/>
  <unicode hex="00B9"/>
  <outline>
    <contour>
      <point x="278" y="1303" type="line"/>
      <point x="399" y="1238" type="line"/>
      <point x="421" y="567" type="line"/>
      <point x="539" y="706" type="line"/>
      <point x="518" y="1486" type="line"/>
      <point x="386" y="1473" type="line"/>
      <point x="220" y="1385" type="line"/>
    </contour>
  </outline>
</glyph>
<glyph name="ordmasculine" format="1">
  <advance width="1000"/>
  <unicode hex="00BA"/>
  <outline>
    <contour>
      <point x="517" y="720" type="curve" smooth="yes"/>
      <point x="373" y="720"/>
      <point x="308" y="847"/>
      <point x="308" y="1031" type="curve" smooth="yes"/>
      <point x="308" y="1212"/>
      <point x="373" y="1339"/>
      <point x="516" y="1339" type="curve" smooth="yes"/>
      <point x="658" y="1339"/>
      <point x="725" y="1212"/>
      <point x="725" y="1029" type="curve" smooth="yes"/>
      <point x="725" y="846"/>
      <point x="658" y="720"/>
    </contour>
    <contour>
      <point x="516" y="583" type="curve" smooth="yes"/>
      <point x="753" y="583"/>
      <point x="909" y="730"/>
      <point x="909" y="1031" type="curve" smooth="yes"/>
      <point x="909" y="1339"/>
      <point x="742" y="1474"/>
      <point x="517" y="1474" type="curve" smooth="yes"/>
      <point x="289" y="1474"/>
      <point x="123" y="1338"/>
      <point x="123" y="1028" type="curve" smooth="yes"/>
      <point x="123" y="729"/>
      <point x="279" y="583"/>
    </contour>
  </outline>
</glyph>
<glyph name="onehalf" format="1">
  <advance width="1398"/>
  <unicode hex="00BD"/>
  <outline>
    <contour>
      <point x="928" y="0" type="line"/>
      <point x="1418" y="0" type="line"/>
      <point x="1418" y="111" type="line"/>
      <point x="1134" y="112" type="line"/>
      <point x="1311" y="266"/>
      <point x="1436" y="343"/>
      <point x="1417" y="512" type="curve" smooth="yes"/>
      <point x="1401" y="654"/>
      <point x="1286" y="712"/>
      <point x="1169" y="712" type="curve" smooth="yes"/>
      <point x="1063" y="712"/>
      <point x="950" y="658"/>
      <point x="907" y="537" type="curve"/>
      <point x="1033" y="474" type="line"/>
      <point x="1051" y="540"/>
      <point x="1090" y="582"/>
      <point x="1161" y="582" type="curve" smooth="yes"/>
      <point x="1227" y="582"/>
      <point x="1261" y="544"/>
      <point x="1264" y="487" type="curve" smooth="yes"/>
      <point x="1269" y="376"/>
      <point x="1131" y="293"/>
      <point x="928" y="115" type="curve"/>
    </contour>
    <contour>
      <point x="208" y="769" type="line"/>
      <point x="365" y="769" type="line"/>
      <point x="365" y="1464" type="line"/>
      <point x="222" y="1464" type="line"/>
      <point x="66" y="1391" type="line"/>
      <point x="95" y="1266" type="line"/>
      <point x="208" y="1326" type="line"/>
    </contour>
    <contour>
      <point x="156" y="-14" type="line"/>
      <point x="1391" y="1415" type="line"/>
      <point x="1283" y="1507" type="line"/>
      <point x="47" y="78" type="line"/>
    </contour>
  </outline>
</glyph>
<glyph name="AE" format="1">
  <advance width="2030"/>
  <unicode hex="00C6"/>
  <outline>
    <contour>
      <point x="1440" y="1464" type="move" name="top"/>
    </contour>
    <contour>
      <point x="-45" y="0" type="line"/>
      <point x="179" y="0" type="line"/>
      <point x="402" y="375" type="line"/>
      <point x="974" y="375" type="line"/>
      <point x="974" y="0" type="line"/>
      <point x="2015" y="0" type="line"/>
      <point x="2015" y="157" type="line"/>
      <point x="1177" y="157" type="line"/>
      <point x="1177" y="701" type="line"/>
      <point x="1842" y="701" type="line"/>
      <point x="1843" y="862" type="line"/>
      <point x="1177" y="862" type="line"/>
      <point x="1177" y="1307" type="line"/>
      <point x="2005" y="1307" type="line"/>
      <point x="2005" y="1464" type="line"/>
      <point x="828" y="1464" type="line"/>
    </contour>
    <contour>
      <point x="486" y="527" type="line"/>
      <point x="974" y="1384" type="line"/>
      <point x="974" y="527" type="line"/>
    </contour>
  </outline>
</glyph>
<glyph name="Eth" format="1">
  <advance width="1444"/>
  <unicode hex="00D0"/>
  <outline>
    <contour>
      <point x="0" y="685" type="line"/>
      <point x="566" y="685" type="line"/>
      <point x="566" y="804" type="line"/>
      <point x="0" y="804" type="line"/>
    </contour>
    <component base="D"/>
  </outline>
</glyph>
<glyph name="Oslash" format="1">
  <advance width="1497"/>
  <unicode hex="00D8"/>
  <outline>
    <contour>
      <point x="354" y="-212" type="line"/>
      <point x="1244" y="1606" type="line"/>
      <point x="1126" y="1668" type="line"/>
      <point x="235" y="-150" type="line"/>
    </contour>
    <component base="O"/>
  </outline>
</glyph>
<glyph name="germandbls" format="1">
  <advance width="1199"/>
  <unicode hex="00DF"/>
  <outline>
    <contour>
      <point x="108" y="0" type="line"/>
      <point x="314" y="0" type="line"/>
      <point x="314" y="1136" type="line" smooth="yes"/>
      <point x="314" y="1267"/>
      <point x="420" y="1349"/>
      <point x="565" y="1347" type="curve" smooth="yes"/>
      <point x="711" y="1346"/>
      <point x="766" y="1290"/>
      <point x="766" y="1209" type="curve" smooth="yes"/>
      <point x="766" y="996"/>
      <point x="434" y="1033"/>
      <point x="433" y="816" type="curve" smooth="yes"/>
      <point x="432" y="572"/>
      <point x="922" y="555"/>
      <point x="917" y="335" type="curve" smooth="yes"/>
      <point x="914" y="200"/>
      <point x="768" y="164"/>
      <point x="441" y="164" type="curve"/>
      <point x="441" y="0" type="line"/>
      <point x="481" y="0" type="line" smooth="yes"/>
      <point x="1039" y="0"/>
      <point x="1122" y="116"/>
      <point x="1124" y="336" type="curve" smooth="yes"/>
      <point x="1127" y="654"/>
      <point x="635" y="717"/>
      <point x="636" y="823" type="curve" smooth="yes"/>
      <point x="637" y="882"/>
      <point x="959" y="931"/>
      <point x="956" y="1203" type="curve" smooth="yes"/>
      <point x="954" y="1368"/>
      <point x="832" y="1488"/>
      <point x="568" y="1492" type="curve" smooth="yes"/>
      <point x="334" y="1495"/>
      <point x="108" y="1373"/>
      <point x="108" y="1151" type="curve" smooth="yes"/>
    </contour>
  </outline>
</glyph>
<glyph name="ae" format="1">
  <advance width="1667"/>
  <unicode hex="00E6"/>
  <outline>
    <contour>
      <point x="882" y="1023" type="move" name="top"/>
    </contour>
    <contour>
      <point x="429" y="-24" type="curve" smooth="yes"/>
      <point x="598" y="-24"/>
      <point x="737" y="24"/>
      <point x="827" y="186" type="curve"/>
      <point x="890" y="35"/>
      <point x="1035" y="-24"/>
      <point x="1195" y="-24" type="curve" smooth="yes"/>
      <point x="1371" y="-22"/>
      <point x="1515" y="83"/>
      <point x="1570" y="234" type="curve"/>
      <point x="1432" y="290" type="line"/>
      <point x="1408" y="233"/>
      <point x="1342" y="121"/>
      <point x="1192" y="122" type="curve" smooth="yes"/>
      <point x="1002" y="124"/>
      <point x="933" y="248"/>
      <point x="926" y="480" type="curve"/>
      <point x="1592" y="492" type="line"/>
      <point x="1594" y="509"/>
      <point x="1595" y="563"/>
      <point x="1595" y="572" type="curve" smooth="yes"/>
      <point x="1595" y="844"/>
      <point x="1476" y="1046"/>
      <point x="1191" y="1046" type="curve" smooth="yes"/>
      <point x="1052" y="1046"/>
      <point x="917" y="987"/>
      <point x="848" y="848" type="curve"/>
      <point x="798" y="1005"/>
      <point x="648" y="1046"/>
      <point x="518" y="1046" type="curve" smooth="yes"/>
      <point x="366" y="1046"/>
      <point x="243" y="1010"/>
      <point x="129" y="931" type="curve"/>
      <point x="206" y="807" type="line"/>
      <point x="293" y="863"/>
      <point x="403" y="911"/>
      <point x="532" y="900" type="curve" smooth="yes"/>
      <point x="696" y="887"/>
      <point x="724" y="798"/>
      <point x="727" y="605" type="curve"/>
      <point x="593" y="603" type="line" smooth="yes"/>
      <point x="255" y="597"/>
      <point x="61" y="501"/>
      <point x="76" y="247" type="curve" smooth="yes"/>
      <point x="87" y="54"/>
      <point x="251" y="-24"/>
    </contour>
    <contour>
      <point x="443" y="121" type="curve" smooth="yes"/>
      <point x="341" y="125"/>
      <point x="283" y="172"/>
      <point x="276" y="252" type="curve" smooth="yes"/>
      <point x="261" y="406"/>
      <point x="391" y="458"/>
      <point x="610" y="463" type="curve" smooth="yes"/>
      <point x="729" y="465" type="line"/>
      <point x="729" y="377" type="line" smooth="yes"/>
      <point x="729" y="197"/>
      <point x="608" y="115"/>
    </contour>
    <contour>
      <point x="929" y="611" type="line"/>
      <point x="942" y="771"/>
      <point x="1022" y="901"/>
      <point x="1189" y="901" type="curve" smooth="yes"/>
      <point x="1350" y="901"/>
      <point x="1407" y="796"/>
      <point x="1418" y="620" type="curve"/>
    </contour>
  </outline>
</glyph>
<glyph name="eth" format="1">
  <advance width="1053"/>
  <unicode hex="00F0"/>
  <outline>
    <contour>
      <point x="518" y="-24" type="curve" smooth="yes"/>
      <point x="845" y="-26"/>
      <point x="985" y="213"/>
      <point x="985" y="529" type="curve" smooth="yes"/>
      <point x="985" y="774"/>
      <point x="925" y="1031"/>
      <point x="760" y="1207" type="curve"/>
      <point x="934" y="1321" type="line"/>
      <point x="861" y="1424" type="line"/>
      <point x="661" y="1294" type="line"/>
      <point x="541" y="1379"/>
      <point x="379" y="1432"/>
      <point x="169" y="1432" type="curve"/>
      <point x="169" y="1302" type="line"/>
      <point x="316" y="1302"/>
      <point x="433" y="1264"/>
      <point x="524" y="1204" type="curve"/>
      <point x="375" y="1107" type="line"/>
      <point x="448" y="1004" type="line"/>
      <point x="624" y="1119" type="line"/>
      <point x="719" y="1017"/>
      <point x="768" y="888"/>
      <point x="783" y="774" type="curve"/>
      <point x="715" y="865"/>
      <point x="612" y="908"/>
      <point x="503" y="908" type="curve" smooth="yes"/>
      <point x="284" y="908"/>
      <point x="70" y="746"/>
      <point x="70" y="454" type="curve" smooth="yes"/>
      <point x="70" y="208"/>
      <point x="221" y="-22"/>
    </contour>
    <contour>
      <point x="519" y="127" type="curve" smooth="yes"/>
      <point x="380" y="134"/>
      <point x="268" y="246"/>
      <point x="268" y="443" type="curve" smooth="yes"/>
      <point x="268" y="633"/>
      <point x="378" y="755"/>
      <point x="523" y="755" type="curve" smooth="yes"/>
      <point x="621" y="755"/>
      <point x="697" y="707"/>
      <point x="789" y="607" type="curve"/>
      <point x="795" y="581"/>
      <point x="796" y="535"/>
      <point x="796" y="511" type="curve" smooth="yes"/>
      <point x="796" y="299"/>
      <point x="715" y="119"/>
    </contour>
  </outline>
</glyph>
<glyph name="oslash" format="1">
  <advance width="1104"/>
  <unicode hex="00F8"/>
  <outline>
    <contour>
      <point x="284" y="-199" type="line"/>
      <point x="935" y="1176" type="line"/>
      <point x="835" y="1229" type="line"/>
      <point x="182" y="-146" type="line"/>
    </contour>
    <component base="o"/>
  </outline>
</glyph>
<glyph name="thorn" format="1">
  <advance width="1058"/>
  <unicode hex="00FE"/>
  <outline>
    <contour>
      <point x="92" y="-394" type="line"/>
      <point x="290" y="-373" type="line"/>
      <point x="290" y="110" type="line"/>
      <point x="346" y="38"/>
      <point x="442" y="-24"/>
      <point x="585" y="-24" type="curve" smooth="yes"/>
      <point x="846" y="-24"/>
      <point x="1005" y="217"/>
      <point x="1005" y="520" type="curve" smooth="yes"/>
      <point x="1005" y="836"/>
      <point x="862" y="1046"/>
      <point x="579" y="1046" type="curve" smooth="yes"/>
      <point x="437" y="1046"/>
      <point x="346" y="986"/>
      <point x="289" y="912" type="curve"/>
      <point x="289" y="1464" type="line"/>
      <point x="92" y="1464" type="line"/>
    </contour>
    <contour>
      <point x="569" y="118" type="curve" smooth="yes"/>
      <point x="396" y="118"/>
      <point x="292" y="243"/>
      <point x="290" y="519" type="curve" smooth="yes"/>
      <point x="287" y="813"/>
      <point x="420" y="906"/>
      <point x="557" y="904" type="curve" smooth="yes"/>
      <point x="694" y="903"/>
      <point x="801" y="786"/>
      <point x="801" y="521" type="curve" smooth="yes"/>
      <point x="801" y="283"/>
      <point x="734" y="118"/>
    </contour>
  </outline>
</glyph>
<glyph name="kgreenlandic" format="1">
  <advance width="1010"/>
  <unicode hex="0138"/>
  <outline>
    <contour>
      <point x="832" y="0" type="line"/>
      <point x="1056" y="0" type="line"/>
      <point x="628" y="590" type="line"/>
      <point x="1001" y="1023" type="line"/>
      <point x="773" y="1023" type="line"/>
      <point x="206" y="380" type="line"/>
      <point x="206" y="184" type="line"/>
      <point x="495" y="481" type="line"/>
    </contour>
    <component base="lc_main_stem"/>
  </outline>
</glyph>
<glyph name="Lslash" format="1">
  <advance width="1055"/>
  <unicode hex="0141"/>
  <outline>
    <contour>
      <point x="-29" y="594" type="line"/>
      <point x="631" y="854" type="line"/>
      <point x="631" y="1024" type="line"/>
      <point x="-29" y="764" type="line"/>
    </contour>
    <component base="L"/>
  </outline>
</glyph>
<glyph name="lslash" format="1">
  <advance width="421"/>
  <unicode hex="0142"/>
  <outline>
    <contour>
      <point x="-43" y="623" type="line"/>
      <point x="497" y="868" type="line"/>
      <point x="497" y="1032" type="line"/>
      <point x="-43" y="787" type="line"/>
    </contour>
    <component base="l"/>
  </outline>
</glyph>
<glyph name="OE" format="1">
  <advance width="2171"/>
  <unicode hex="0152"/>
  <outline>
    <contour>
      <point x="717" y="-25" type="curve" smooth="yes"/>
      <point x="974" y="-25"/>
      <point x="1098" y="62"/>
      <point x="1164" y="188" type="curve"/>
      <point x="1164" y="0" type="line"/>
      <point x="2121" y="0" type="line"/>
      <point x="2121" y="155" type="line"/>
      <point x="1369" y="155" type="line"/>
      <point x="1369" y="700" type="line"/>
      <point x="2012" y="700" type="line"/>
      <point x="2012" y="857" type="line"/>
      <point x="1369" y="857" type="line"/>
      <point x="1369" y="1309" type="line"/>
      <point x="2110" y="1309" type="line"/>
      <point x="2110" y="1464" type="line"/>
      <point x="1163" y="1464" type="line"/>
      <point x="1163" y="1284" type="line"/>
      <point x="1086" y="1415"/>
      <point x="948" y="1491"/>
      <point x="719" y="1491" type="curve" smooth="yes"/>
      <point x="340" y="1491"/>
      <point x="102" y="1282"/>
      <point x="102" y="740" type="curve" smooth="yes"/>
      <point x="102" y="186"/>
      <point x="334" y="-25"/>
    </contour>
    <contour>
      <point x="718" y="140" type="curve" smooth="yes"/>
      <point x="414" y="147"/>
      <point x="316" y="329"/>
      <point x="316" y="741" type="curve" smooth="yes"/>
      <point x="316" y="1130"/>
      <point x="417" y="1320"/>
      <point x="718" y="1327" type="curve" smooth="yes"/>
      <point x="1062" y="1335"/>
      <point x="1164" y="1175"/>
      <point x="1164" y="732" type="curve" smooth="yes"/>
      <point x="1164" y="280"/>
      <point x="1045" y="133"/>
    </contour>
  </outline>
</glyph>
<glyph name="tbar" format="1">
  <advance width="686"/>
  <unicode hex="0167"/>
  <outline>
    <contour>
      <point x="90" y="533" type="line"/>
      <point x="544" y="533" type="line"/>
      <point x="544" y="673" type="line"/>
      <point x="90" y="673" type="line"/>
    </contour>
    <component base="t"/>
  </outline>
</glyph>
<glyph name="apostrophemod" format="1">
  <advance width="600"/>
  <unicode hex="02BC"/>
  <outline>
    <contour>
      <point x="320" y="1023" type="move" name="_top"/>
    </contour>
    <contour>
      <point x="284" y="1194" type="line"/>
      <point x="426" y="1277"/>
      <point x="450" y="1394"/>
      <point x="451" y="1584" type="curve"/>
      <point x="451" y="1717" type="line"/>
      <point x="191" y="1717" type="line"/>
      <point x="191" y="1487" type="line"/>
      <point x="305" y="1474" type="line"/>
      <point x="305" y="1386"/>
      <point x="246" y="1309"/>
      <point x="215" y="1280" type="curve"/>
    </contour>
  </outline>
</glyph>
<glyph name="uni02C9" format="1">
  <advance width="600"/>
  <unicode hex="02C9"/>
  <outline>
    <contour>
      <point x="297" y="1023" type="move" name="_top"/>
    </contour>
    <contour>
      <point x="84" y="1247" type="line"/>
      <point x="538" y="1247" type="line"/>
      <point x="538" y="1387" type="line"/>
      <point x="84" y="1387" type="line"/>
    </contour>
  </outline>
</glyph>
<glyph name="ring" format="1">
  <advance width="728"/>
  <unicode hex="02DA"/>
  <outline>
    <contour>
      <point x="351" y="1023" type="move" name="_top"/>
    </contour>
    <contour>
      <point x="365" y="1331" type="curve"/>
      <point x="286" y="1331"/>
      <point x="242" y="1391"/>
      <point x="242" y="1465" type="curve"/>
      <point x="242" y="1539"/>
      <point x="286" y="1600"/>
      <point x="365" y="1600" type="curve"/>
      <point x="444" y="1600"/>
      <point x="488" y="1539"/>
      <point x="488" y="1465" type="curve"/>
      <point x="488" y="1391"/>
      <point x="444" y="1331"/>
    </contour>
    <contour>
      <point x="365" y="1214" type="curve"/>
      <point x="529" y="1214"/>
      <point x="623" y="1334"/>
      <point x="623" y="1465" type="curve"/>
      <point x="623" y="1597"/>
      <point x="529" y="1716"/>
      <point x="365" y="1716" type="curve"/>
      <point x="201" y="1716"/>
      <point x="107" y="1597"/>
      <point x="107" y="1465" type="curve"/>
      <point x="107" y="1334"/>
      <point x="201" y="1214"/>
    </contour>
  </outline>
</glyph>
<glyph name="ogonek" format="1">
  <advance width="462"/>
  <unicode hex="02DB"/>
  <outline>
    <contour>
      <point x="299" y="0" type="move" name="_ogonek"/>
    </contour>
    <contour>
      <point x="386" y="-375" type="curve"/>
      <point x="386" y="-264" type="line"/>
      <point x="303" y="-283"/>
      <point x="281" y="-251"/>
      <point x="281" y="-205" type="curve" smooth="yes"/>
      <point x="281" y="-147"/>
      <point x="312" y="-80"/>
      <point x="347" y="0" type="curve"/>
      <point x="252" y="0" type="line"/>
      <point x="189" y="-72"/>
      <point x="118" y="-156"/>
      <point x="117" y="-241" type="curve" smooth="yes"/>
      <point x="116" y="-321"/>
      <point x="194" y="-422"/>
    </contour>
  </outline>
</glyph>
<glyph name="hungarumlaut" format="1">
  <advance width="745"/>
  <unicode hex="02DD"/>
  <outline>
    <contour>
      <point x="249" y="1023" type="move" name="_top"/>
    </contour>
    <contour>
      <point x="55" y="1134" type="line"/>
      <point x="147" y="1134" type="line"/>
      <point x="389" y="1470" type="line"/>
      <point x="128" y="1470" type="line"/>
    </contour>
    <contour>
      <point x="371" y="1134" type="line"/>
      <point x="472" y="1134" type="line"/>
      <point x="741" y="1470" type="line"/>
      <point x="472" y="1470" type="line"/>
    </contour>
  </outline>
</glyph>
<glyph name="Delta" format="1">
  <advance width="1332"/>
  <unicode hex="0394"/>
  <outline>
    <contour>
      <point x="57" y="0" type="line"/>
      <point x="1289" y="0" type="line"/>
      <point x="752" y="1482" type="line"/>
      <point x="588" y="1482" type="line"/>
    </contour>
    <contour>
      <point x="236" y="140" type="line"/>
      <point x="640" y="1307" type="line"/>
      <point x="1050" y="140" type="line"/>
    </contour>
  </outline>
</glyph>
<glyph name="quoteleft" format="1">
  <advance width="330"/>
  <unicode hex="2018"/>
  <outline>
    <contour>
      <point x="22" y="992" type="line"/>
      <point x="246" y="992" type="line"/>
      <point x="246" y="1014"/>
      <point x="246" y="1035"/>
      <point x="246" y="1057" type="curve" smooth="yes"/>
      <point x="246" y="1100"/>
      <point x="246" y="1144"/>
      <point x="246" y="1187" type="curve"/>
      <point x="152" y="1200" type="line"/>
      <point x="152" y="1298"/>
      <point x="173" y="1327"/>
      <point x="230" y="1423" type="curve"/>
      <point x="229" y="1423"/>
      <point x="145" y="1468"/>
      <point x="145" y="1469" type="curve"/>
      <point x="24" y="1374"/>
      <point x="22" y="1244"/>
      <point x="22" y="1103" type="curve" smooth="yes"/>
      <point x="22" y="1099"/>
      <point x="22" y="1094"/>
      <point x="22" y="1089" type="curve" smooth="yes"/>
    </contour>
  </outline>
</glyph>
<glyph name="quotedblright" format="1">
  <advance width="631"/>
  <unicode hex="201D"/>
  <outline>
    <contour>
      <point x="156" y="991" type="line"/>
      <point x="316" y="1104"/>
      <point x="293" y="1284"/>
      <point x="297" y="1464" type="curve"/>
      <point x="92" y="1464" type="line"/>
      <point x="92" y="1292" type="line" smooth="yes"/>
      <point x="92" y="1291"/>
      <point x="182" y="1273"/>
      <point x="182" y="1274" type="curve"/>
      <point x="179" y="1154"/>
      <point x="128" y="1077"/>
      <point x="102" y="1054" type="curve"/>
    </contour>
    <contour>
      <point x="453" y="991" type="line"/>
      <point x="612" y="1103"/>
      <point x="598" y="1285"/>
      <point x="603" y="1464" type="curve"/>
      <point x="399" y="1464" type="line"/>
      <point x="399" y="1292" type="line"/>
      <point x="480" y="1273" type="line"/>
      <point x="477" y="1152"/>
      <point x="425" y="1075"/>
      <point x="400" y="1054" type="curve"/>
    </contour>
  </outline>
</glyph>
<glyph name="foursuperior" format="1">
  <advance width="1285"/>
  <unicode hex="2074"/>
  <outline>
    <contour>
      <point x="403" y="776" type="line"/>
      <point x="403" y="954" type="line"/>
      <point x="668" y="1464" type="line"/>
      <point x="766" y="1370" type="line"/>
      <point x="766" y="847" type="line"/>
      <point x="961" y="847" type="line"/>
      <point x="961" y="730" type="line"/>
      <point x="859" y="730" type="line"/>
      <point x="859" y="575" type="line"/>
      <point x="769" y="575" type="line"/>
      <point x="769" y="776" type="line"/>
    </contour>
    <contour>
      <point x="678" y="864" type="line"/>
      <point x="726" y="1365" type="line"/>
      <point x="490" y="864" type="line"/>
    </contour>
  </outline>
</glyph>
<glyph name="uni2113" format="1">
  <advance width="852"/>
  <unicode hex="2113"/>
  <outline>
    <contour>
      <point x="424" y="875" type="line"/>
      <point x="424" y="301" type="line" smooth="yes"/>
      <point x="424" y="169"/>
      <point x="477" y="131"/>
      <point x="551" y="131" type="curve" smooth="yes"/>
      <point x="586" y="131"/>
      <point x="635" y="143"/>
      <point x="683" y="163" type="curve"/>
      <point x="716" y="32" type="line"/>
      <point x="651" y="1"/>
      <point x="581" y="-16"/>
      <point x="516" y="-16" type="curve" smooth="yes"/>
      <point x="355" y="-16"/>
      <point x="222" y="61"/>
      <point x="226" y="298" type="curve" smooth="yes"/>
      <point x="226" y="742" type="line"/>
      <point x="79" y="625" type="line"/>
      <point x="16" y="716" type="line"/>
      <point x="226" y="886" type="line"/>
      <point x="226" y="1245" type="line" smooth="yes"/>
      <point x="226" y="1464"/>
      <point x="362" y="1568"/>
      <point x="525" y="1568" type="curve" smooth="yes"/>
      <point x="676" y="1568"/>
      <point x="778" y="1475"/>
      <point x="778" y="1342" type="curve" smooth="yes"/>
      <point x="778" y="1234"/>
      <point x="712" y="1104"/>
      <point x="560" y="983" type="curve" smooth="yes"/>
    </contour>
    <contour>
      <point x="596" y="1255" type="curve"/>
      <point x="596" y="1304"/>
      <point x="578" y="1347"/>
      <point x="535" y="1347" type="curve" smooth="yes"/>
      <point x="502" y="1365"/>
      <point x="467" y="1350"/>
      <point x="467" y="1257" type="curve" smooth="yes"/>
      <point x="467" y="1270"/>
      <point x="459" y="1103"/>
      <point x="449" y="1103" type="curve" smooth="yes"/>
      <point x="435" y="1103"/>
      <point x="471" y="1131"/>
      <point x="471" y="1104" type="curve" smooth="yes"/>
      <point x="562" y="1178"/>
      <point x="596" y="1202"/>
    </contour>
  </outline>
</glyph>
<glyph name="partialdiff" format="1">
  <advance width="1183"/>
  <unicode hex="2202"/>
  <outline>
    <contour>
      <point x="527" y="-24" type="curve" smooth="yes"/>
      <point x="850" y="-24"/>
      <point x="1013" y="215"/>
      <point x="1047" y="529" type="curve" smooth="yes"/>
      <point x="1053" y="579"/>
      <point x="1056" y="629"/>
      <point x="1056" y="678" type="curve" smooth="yes"/>
      <point x="1056" y="1064"/>
      <point x="885" y="1432"/>
      <point x="327" y="1432" type="curve"/>
      <point x="313" y="1302" type="line"/>
      <point x="721" y="1302"/>
      <point x="866" y="1008"/>
      <point x="871" y="774" type="curve"/>
      <point x="813" y="864"/>
      <point x="715" y="908"/>
      <point x="606" y="908" type="curve" smooth="yes"/>
      <point x="387" y="908"/>
      <point x="155" y="746"/>
      <point x="125" y="454" type="curve" smooth="yes"/>
      <point x="123" y="433"/>
      <point x="122" y="412"/>
      <point x="122" y="392" type="curve" smooth="yes"/>
      <point x="122" y="169"/>
      <point x="253" y="-24"/>
    </contour>
    <contour>
      <point x="553" y="127" type="curve" smooth="yes"/>
      <point x="420" y="127"/>
      <point x="319" y="221"/>
      <point x="319" y="393" type="curve" smooth="yes"/>
      <point x="319" y="409"/>
      <point x="320" y="426"/>
      <point x="322" y="443" type="curve" smooth="yes"/>
      <point x="342" y="633"/>
      <point x="464" y="755"/>
      <point x="609" y="755" type="curve" smooth="yes"/>
      <point x="707" y="755"/>
      <point x="778" y="707"/>
      <point x="860" y="607" type="curve"/>
      <point x="861" y="599"/>
      <point x="861" y="591"/>
      <point x="861" y="582" type="curve" smooth="yes"/>
      <point x="861" y="559"/>
      <point x="858" y="529"/>
      <point x="857" y="511" type="curve" smooth="yes"/>
      <point x="835" y="304"/>
      <point x="739" y="127"/>
    </contour>
  </outline>
</glyph>
<glyph name="uni2206" format="1">
  <advance width="1289"/>
  <unicode hex="2206"/>
  <outline>
    <contour>
      <point x="65" y="0" type="line"/>
      <point x="1218" y="0" type="line"/>
      <point x="1218" y="85" type="line"/>
      <point x="743" y="1537" type="line"/>
      <point x="571" y="1537" type="line"/>
      <point x="65" y="85" type="line"/>
    </contour>
    <contour>
      <point x="241" y="181" type="line"/>
      <point x="604" y="1273" type="line"/>
      <point x="636" y="1391" type="line"/>
      <point x="670" y="1273" type="line"/>
      <point x="1018" y="181" type="line"/>
    </contour>
  </outline>
</glyph>
<glyph name="summation" format="1">
  <advance width="1241"/>
  <unicode hex="2211"/>
  <outline>
    <contour>
      <point x="161" y="-18" type="line"/>
      <point x="1142" y="-18" type="line" smooth="yes"/>
      <point x="1142" y="137" type="line" smooth="yes"/>
      <point x="358" y="137" type="line" smooth="yes"/>
      <point x="897" y="680" type="line" smooth="yes"/>
      <point x="897" y="789" type="line" smooth="yes"/>
      <point x="361" y="1342" type="line" smooth="yes"/>
      <point x="1142" y="1342" type="line" smooth="yes"/>
      <point x="1142" y="1491" type="line" smooth="yes"/>
      <point x="161" y="1491" type="line" smooth="yes"/>
      <point x="161" y="1335" type="line" smooth="yes"/>
      <point x="722" y="737" type="line" smooth="yes"/>
      <point x="161" y="155" type="line" smooth="yes"/>
    </contour>
  </outline>
</glyph>
<glyph name="infinity" format="1">
  <advance width="1606"/>
  <unicode hex="221E"/>
  <outline>
    <contour>
      <point x="1171" y="303" type="curve" smooth="yes"/>
      <point x="1430" y="302"/>
      <point x="1561" y="521"/>
      <point x="1561" y="738" type="curve" smooth="yes"/>
      <point x="1561" y="950"/>
      <point x="1435" y="1162"/>
      <point x="1182" y="1166" type="curve" smooth="yes"/>
      <point x="1031" y="1168"/>
      <point x="881" y="1079"/>
      <point x="798" y="937" type="curve"/>
      <point x="726" y="1074"/>
      <point x="585" y="1162"/>
      <point x="435" y="1162" type="curve" smooth="yes"/>
      <point x="173" y="1162"/>
      <point x="41" y="945"/>
      <point x="41" y="730" type="curve" smooth="yes"/>
      <point x="41" y="514"/>
      <point x="172" y="300"/>
      <point x="432" y="300" type="curve" smooth="yes"/>
      <point x="578" y="300"/>
      <point x="714" y="393"/>
      <point x="782" y="542" type="curve"/>
      <point x="859" y="396"/>
      <point x="1010" y="303"/>
    </contour>
    <contour>
      <point x="435" y="493" type="curve" smooth="yes"/>
      <point x="282" y="493"/>
      <point x="205" y="613"/>
      <point x="205" y="732" type="curve" smooth="yes"/>
      <point x="205" y="850"/>
      <point x="281" y="967"/>
      <point x="433" y="967" type="curve" smooth="yes"/>
      <point x="551" y="967"/>
      <point x="664" y="857"/>
      <point x="724" y="680" type="curve"/>
      <point x="657" y="566"/>
      <point x="545" y="493"/>
    </contour>
    <contour>
      <point x="1169" y="493" type="curve" smooth="yes"/>
      <point x="1041" y="493"/>
      <point x="920" y="614"/>
      <point x="857" y="807" type="curve"/>
      <point x="922" y="906"/>
      <point x="1035" y="965"/>
      <point x="1150" y="965" type="curve" smooth="yes"/>
      <point x="1267" y="965"/>
      <point x="1395" y="889"/>
      <point x="1395" y="724" type="curve" smooth="yes"/>
      <point x="1395" y="607"/>
      <point x="1320" y="493"/>
    </contour>
  </outline>
</glyph>
<glyph name="integral" format="1">
  <advance width="810"/>
  <unicode hex="222B"/>
  <outline>
    <contour>
      <point x="184" y="-275" type="curve" smooth="yes"/>
      <point x="363" y="-275"/>
      <point x="465" y="-208"/>
      <point x="489" y="62" type="curve" smooth="yes"/>
      <point x="586" y="1144" type="line" smooth="yes"/>
      <point x="599" y="1287"/>
      <point x="616" y="1323"/>
      <point x="703" y="1323" type="curve" smooth="yes"/>
      <point x="737" y="1323"/>
      <point x="776" y="1311"/>
      <point x="806" y="1294" type="curve"/>
      <point x="868" y="1425" type="line"/>
      <point x="829" y="1448"/>
      <point x="754" y="1474"/>
      <point x="694" y="1474" type="curve" smooth="yes"/>
      <point x="515" y="1474"/>
      <point x="413" y="1406"/>
      <point x="389" y="1136" type="curve" smooth="yes"/>
      <point x="292" y="55" type="line" smooth="yes"/>
      <point x="279" y="-88"/>
      <point x="262" y="-124"/>
      <point x="175" y="-124" type="curve" smooth="yes"/>
      <point x="141" y="-124"/>
      <point x="102" y="-112"/>
      <point x="72" y="-95" type="curve"/>
      <point x="10" y="-226" type="line"/>
      <point x="49" y="-250"/>
      <point x="124" y="-275"/>
    </contour>
  </outline>
</glyph>
<glyph name="approxequal" format="1">
  <advance width="1048"/>
  <unicode hex="2248"/>
  <outline>
    <contour>
      <point x="849" y="408" type="curve" smooth="yes"/>
      <point x="956" y="403"/>
      <point x="1005" y="461"/>
      <point x="1014" y="650" type="curve"/>
      <point x="895" y="650" type="line"/>
      <point x="890" y="573"/>
      <point x="858" y="548"/>
      <point x="805" y="548" type="curve" smooth="yes"/>
      <point x="698" y="548"/>
      <point x="504" y="655"/>
      <point x="279" y="664" type="curve" smooth="yes"/>
      <point x="187" y="667"/>
      <point x="109" y="648"/>
      <point x="94" y="415" type="curve"/>
      <point x="212" y="415" type="line"/>
      <point x="211" y="498"/>
      <point x="245" y="525"/>
      <point x="304" y="525" type="curve" smooth="yes"/>
      <point x="419" y="525"/>
      <point x="628" y="419"/>
    </contour>
    <contour>
      <point x="800" y="734" type="curve" smooth="yes"/>
      <point x="907" y="729"/>
      <point x="956" y="787"/>
      <point x="965" y="975" type="curve"/>
      <point x="846" y="975" type="line"/>
      <point x="841" y="899"/>
      <point x="809" y="873"/>
      <point x="756" y="873" type="curve" smooth="yes"/>
      <point x="649" y="873"/>
      <point x="455" y="980"/>
      <point x="230" y="989" type="curve" smooth="yes"/>
      <point x="138" y="993"/>
      <point x="60" y="973"/>
      <point x="45" y="741" type="curve"/>
      <point x="163" y="741" type="line"/>
      <point x="162" y="823"/>
      <point x="196" y="851"/>
      <point x="255" y="851" type="curve" smooth="yes"/>
      <point x="370" y="851"/>
      <point x="579" y="745"/>
    </contour>
  </outline>
</glyph>
<glyph name="notequal" format="1">
  <advance width="912"/>
  <unicode hex="2260"/>
  <outline>
    <contour>
      <point x="362" y="216" type="line"/>
      <point x="472" y="516" type="line"/>
      <point x="864" y="516" type="line"/>
      <point x="864" y="653" type="line"/>
      <point x="523" y="653" type="line"/>
      <point x="564" y="765" type="line"/>
      <point x="864" y="765" type="line"/>
      <point x="864" y="903" type="line"/>
      <point x="614" y="903" type="line"/>
      <point x="713" y="1171" type="line"/>
      <point x="551" y="1208" type="line"/>
      <point x="443" y="903" type="line"/>
      <point x="48" y="903" type="line"/>
      <point x="48" y="765" type="line"/>
      <point x="394" y="765" type="line"/>
      <point x="354" y="653" type="line"/>
      <point x="48" y="653" type="line"/>
      <point x="48" y="516" type="line"/>
      <point x="305" y="516" type="line"/>
      <point x="212" y="252" type="line"/>
    </contour>
  </outline>
</glyph>
<glyph name="lessequal" format="1">
  <advance width="1051"/>
  <unicode hex="2264"/>
  <outline>
    <contour>
      <point x="998" y="250" type="line"/>
      <point x="998" y="428" type="line"/>
      <point x="273" y="623" type="line"/>
      <point x="998" y="800" type="line"/>
      <point x="998" y="1014" type="line"/>
      <point x="49" y="714" type="line"/>
      <point x="49" y="534" type="line"/>
    </contour>
    <contour>
      <point x="45" y="0" type="line"/>
      <point x="1006" y="0" type="line"/>
      <point x="1006" y="130" type="line"/>
      <point x="45" y="130" type="line"/>
    </contour>
  </outline>
</glyph>
<glyph name="greaterequal" format="1">
  <advance width="1051"/>
  <unicode hex="2265"/>
  <outline>
    <contour>
      <point x="50" y="248" type="line"/>
      <point x="999" y="528" type="line"/>
      <point x="999" y="708" type="line"/>
      <point x="50" y="1020" type="line"/>
      <point x="50" y="826" type="line"/>
      <point x="775" y="628" type="line"/>
      <point x="50" y="446" type="line"/>
    </contour>
    <contour>
      <point x="53" y="0" type="line"/>
      <point x="1014" y="0" type="line"/>
      <point x="1014" y="130" type="line"/>
      <point x="53" y="130" type="line"/>
    </contour>
  </outline>
</glyph>
<glyph name="lc_curved_stem" format="1">
  <advance width="1086"/>
  <outline>
    <contour>
      <point x="677" y="1159" type="move" name="top"/>
    </contour>
    <contour>
      <point x="803" y="0" type="line"/>
      <point x="1001" y="0" type="line"/>
      <point x="1001" y="593" type="line" smooth="yes"/>
      <point x="1001" y="799"/>
      <point x="964" y="1044"/>
      <point x="641" y="1044" type="curve" smooth="yes"/>
      <point x="389" y="1044"/>
      <point x="265" y="884"/>
      <point x="220" y="621" type="curve"/>
      <point x="314" y="493" type="line" smooth="yes"/>
      <point x="314" y="705"/>
      <point x="374" y="905"/>
      <point x="601" y="905" type="curve" smooth="yes"/>
      <point x="754" y="905"/>
      <point x="803" y="803"/>
      <point x="803" y="602" type="curve" smooth="yes"/>
    </contour>
  </outline>
</glyph>
<glyph name="middot" format="1">
  <advance width="600"/>
  <outline>
    <contour>
      <point x="185" y="529" type="line"/>
      <point x="426" y="529" type="line"/>
      <point x="426" y="764" type="line"/>
      <point x="185" y="764" type="line"/>
    </contour>
  </outline>
</glyph>
